<?xml version="1.0" encoding="utf-8"?>
<!-- Generator: Adobe Illustrator 27.0.0, SVG Export Plug-In . SVG Version: 6.00 Build 0)  -->
<svg version="1.1" id="图层_1" xmlns="http://www.w3.org/2000/svg" xmlns:xlink="http://www.w3.org/1999/xlink" x="0px" y="0px"
	 viewBox="0 0 104 104" style="enable-background:new 0 0 104 104;" xml:space="preserve">
<style type="text/css">
	.st0{fill:#5A5A5A;}
</style>
<g>
	<path class="st0" d="M52,12c-22.1,0-40,17.9-40,40c0,22.1,17.9,40,40,40s40-17.9,40-40C92,29.9,74.1,12,52,12z M52,88.2
		C32,88.2,15.8,72,15.8,52C15.8,32,32,15.8,52,15.8S88.2,32,88.2,52C88.2,72,72,88.2,52,88.2z"/>
	<path class="st0" d="M55.2,71.9c-1.1-0.7-2.3-1.7-1.5-4.9c0.7-3.2,2.6-9.4,3.4-12.6c0.4-1.6,0.7-5,0-6.5c-0.6-1.3-2.9-3.1-4.3-3.5
		c-1.4-0.4-4.4-0.3-5.8,0c-1.6,0.3-6.3,2.1-6.3,2.1L40,49.2c0,0,3.9-1,5.1-0.8c0.7,0.1,1.8,1.1,2,1.7c0.3,0.8,0.1,2.6-0.1,3.4
		c-0.7,3.5-4.6,13.1-3.8,17.5c0.3,1.6,2.4,3.9,4.6,4.9c2.2,1,5.3,0.5,7,0c1.4-0.4,5.4-2,5.4-2l0.7-2.8
		C58.1,72.1,56.4,72.7,55.2,71.9z"/>
	<path class="st0" d="M55.5,27.9c-3.1,0-5.6,2.4-5.6,5.3c0,2.9,2.5,5.3,5.6,5.3c3.1,0,5.6-2.4,5.6-5.3
		C61.2,30.3,58.6,27.9,55.5,27.9z"/>
</g>
</svg>
