<?xml version="1.0" encoding="utf-8"?>
<!-- Generator: Adobe Illustrator 27.0.0, SVG Export Plug-In . SVG Version: 6.00 Build 0)  -->
<svg version="1.1" id="图层_1" xmlns="http://www.w3.org/2000/svg" xmlns:xlink="http://www.w3.org/1999/xlink" x="0px" y="0px"
	 viewBox="0 0 104 104" style="enable-background:new 0 0 104 104;" xml:space="preserve">
<style type="text/css">
	.st0{fill:#5A5A5A;}
</style>
<g>
</g>
<g>
</g>
<g>
</g>
<g>
</g>
<g>
</g>
<g>
</g>
<g>
</g>
<g>
</g>
<g>
</g>
<g>
</g>
<g>
</g>
<g>
</g>
<g>
</g>
<g>
</g>
<g>
</g>
<g>
</g>
<g>
</g>
<g>
</g>
<g>
</g>
<g>
</g>
<g>
</g>
<g>
</g>
<g>
</g>
<g>
</g>
<g>
</g>
<g>
</g>
<g>
</g>
<g>
</g>
<g>
</g>
<g>
</g>
<g>
	<path class="st0" d="M52.3,41.6c-0.1,0-0.1,0-0.2,0c-5.7,0.1-10.4,4.8-10.5,10.5c-0.1,5.7,4.4,10.2,10,10.2c0.1,0,0.1,0,0.2,0
		c5.7-0.1,10.4-4.8,10.5-10.5C62.4,46.2,58,41.6,52.3,41.6z M51.8,58.3L51.8,58.3c-1.7,0-3.2-0.6-4.3-1.8c-1.1-1.1-1.7-2.7-1.7-4.3
		c0.1-3.5,3-6.4,6.5-6.5l0.1,0c1.6,0,3.1,0.6,4.2,1.8c1.1,1.1,1.7,2.7,1.7,4.3C58.2,55.3,55.3,58.2,51.8,58.3z"/>
	<path class="st0" d="M61,78.2l-8.9,8.9L43,77.8c-0.8-0.8-2.1-0.8-2.9,0c-0.8,0.8-0.8,2.1,0,2.9l10.7,10.7c0.4,0.4,0.9,0.6,1.4,0.6
		s1-0.2,1.4-0.6l10.3-10.3c0.8-0.8,0.8-2.1,0-2.9C63.1,77.4,61.8,77.4,61,78.2z"/>
	<path class="st0" d="M43,25.9l8.8-9l9.3,9.1c0.4,0.4,0.9,0.6,1.4,0.6c0.5,0,1.1-0.2,1.5-0.6c0.8-0.8,0.8-2.1,0-2.9L53.2,12.6
		c-0.4-0.4-0.9-0.6-1.4-0.6c0,0,0,0,0,0c-0.5,0-1.1,0.2-1.4,0.6L40,23.1c-0.8,0.8-0.8,2.1,0,2.9C40.9,26.8,42.2,26.7,43,25.9z"/>
	<path class="st0" d="M91.4,50.7L80.7,40.1c-0.8-0.8-2.1-0.8-2.9,0s-0.8,2.1,0,2.9l9.2,9.2L78.2,61c-0.8,0.8-0.8,2.1,0,2.9
		c0.4,0.4,0.9,0.6,1.4,0.6s1-0.2,1.4-0.6l10.3-10.3C92.2,52.8,92.2,51.5,91.4,50.7z"/>
	<path class="st0" d="M16.9,51.9l8.8-9c0.8-0.8,0.8-2.1,0-2.9c-0.8-0.8-2.1-0.8-2.9,0L12.6,50.5c-0.8,0.8-0.8,2.1,0,2.9L23.4,64
		c0.4,0.4,0.9,0.6,1.4,0.6c0.5,0,1.1-0.2,1.5-0.6c0.8-0.8,0.8-2.1,0-2.9L16.9,51.9z"/>
</g>
</svg>
