<?xml version="1.0" encoding="utf-8"?>
<!-- Generator: Adobe Illustrator 27.0.0, SVG Export Plug-In . SVG Version: 6.00 Build 0)  -->
<svg version="1.1" id="图层_1" xmlns="http://www.w3.org/2000/svg" xmlns:xlink="http://www.w3.org/1999/xlink" x="0px" y="0px"
	 viewBox="0 0 104 104" style="enable-background:new 0 0 104 104;" xml:space="preserve">
<style type="text/css">
	.st0{fill:#5A5A5A;}
</style>
<g>
	<path class="st0" d="M62.8,56.4c0.7,0.9,1.5,1.1,2.6,1.1c0.7,0,1.5-0.2,2-0.7c0.7-0.4,1.1-1.3,1.1-2.2s-0.2-1.8-0.7-2.4
		c-2-2.4-2-6.6,0-9c4-4.8,4-12.3,0-17.1c-0.7-0.9-1.5-1.1-2.6-1.1c-0.7,0-1.5,0.2-2,0.7c-0.7,0.4-1.1,1.3-1.1,2.2
		c0,0.9,0.2,1.8,0.7,2.4c2,2.4,2,6.6,0,9C58.8,44,58.8,51.5,62.8,56.4z"/>
	<path class="st0" d="M49.4,56.4c0.7,0.9,1.5,1.1,2.6,1.1c0.7,0,1.5-0.2,2-0.7c0.7-0.4,1.1-1.3,1.1-2.2s-0.2-1.8-0.7-2.4
		c-2-2.4-2-6.6,0-9c4-4.8,4-12.3,0-17.1c-0.7-0.9-1.5-1.1-2.6-1.1c-0.7,0-1.5,0.2-2,0.7c-0.7,0.4-1.1,1.3-1.1,2.2
		c0,0.9,0.2,1.8,0.7,2.4c2,2.4,2,6.6,0,9C45.6,44,45.6,51.5,49.4,56.4z"/>
	<path class="st0" d="M36.2,56.4c0.7,0.9,1.5,1.1,2.6,1.1c0.7,0,1.5-0.2,2-0.7c0.7-0.4,1.1-1.3,1.1-2.2s-0.2-1.8-0.7-2.4
		c-2-2.4-2-6.6,0-9c4-4.8,4-12.3,0-17.1c-0.7-0.9-1.5-1.3-2.6-1.3c-0.7,0-1.5,0.2-2,0.7c-0.7,0.4-1.1,1.3-1.1,2.2
		c0,0.9,0.2,1.8,0.7,2.4c2,2.4,2,6.6,0,9C32.5,44,32.5,51.5,36.2,56.4z"/>
	<path class="st0" d="M42.1,51.7c0.7,0.9,1.1,1.8,0.9,2.9h4c-0.7-1.3-1.1-2.9-1.3-4.4h-4.4C41.5,50.6,41.7,51.2,42.1,51.7z"/>
	<path class="st0" d="M96,76.6l-6.2-24.8c-0.2-0.9-1.1-1.8-2.2-1.8H67.8c0.2,0.4,0.4,1.1,0.9,1.5c0.7,0.9,0.9,1.8,0.9,2.9h16.3
		L91,74.8H13.1l5.1-20.4h15.6c-0.7-1.3-1.1-2.9-1.3-4.4h-16c-1.1,0-1.8,0.7-2.2,1.8L8.1,76.6c-0.2,0.7,0,1.3,0.4,1.8
		c0.4,0.4,1.1,0.9,1.8,0.9h83.5c0.7,0,1.3-0.2,1.8-0.9C96,77.9,96,77.3,96,76.6z"/>
	<path class="st0" d="M55.3,51.7c0.7,0.9,0.9,1.8,0.9,2.9h4c-0.7-1.3-1.1-2.9-1.3-4.4h-4.4C54.7,50.6,55.1,51.2,55.3,51.7z"/>
</g>
</svg>
