<?xml version="1.0" encoding="utf-8"?>
<!-- Generator: Adobe Illustrator 27.0.0, SVG Export Plug-In . SVG Version: 6.00 Build 0)  -->
<svg version="1.1" id="图层_1" xmlns="http://www.w3.org/2000/svg" xmlns:xlink="http://www.w3.org/1999/xlink" x="0px" y="0px"
	 viewBox="0 0 104 104" style="enable-background:new 0 0 104 104;" xml:space="preserve">
<style type="text/css">
	.st0{fill:#5A5A5A;}
</style>
<g>
	<path class="st0" d="M62.6,77.2c0.7,0.7,1.5,1.1,2.6,1.1c0.7,0,1.5-0.2,2-0.7c0.7-0.4,1.1-1.3,1.1-2.2s-0.2-1.8-0.7-2.4
		c-2-2.4-2-6.6,0-9c4-4.8,4-12.3,0-17.2c-0.4-0.7-1.5-1.1-2.4-1.1c-0.7,0-1.5,0.2-2,0.7c-0.7,0.4-1.1,1.3-1.1,2.2s0.2,1.8,0.7,2.4
		c2,2.4,2,6.6,0,9C58.8,64.9,58.8,72.3,62.6,77.2z"/>
	<path class="st0" d="M49.4,77.2c0.7,0.7,1.5,1.1,2.6,1.1c0.7,0,1.3-0.2,2-0.7c0.7-0.4,1.1-1.3,1.1-2.2s-0.2-1.8-0.7-2.4
		c-2-2.4-2-6.6,0-9c4-4.8,4-12.3,0-17.2c-0.7-0.7-1.5-1.1-2.4-1.1c-0.7,0-1.5,0.2-2,0.7c-0.7,0.4-1.1,1.3-1.1,2.2s0.2,1.8,0.7,2.4
		c2,2.4,2,6.6,0,9C45.4,64.9,45.4,72.3,49.4,77.2z"/>
	<path class="st0" d="M36.2,77.2c0.7,0.7,1.5,1.1,2.6,1.1c0.7,0,1.5-0.2,2-0.7c0.7-0.4,1.1-1.3,1.1-2.2s-0.2-1.8-0.7-2.4
		c-2-2.4-2-6.6,0-9c4-4.8,4-12.3,0-17.2c-0.7-0.7-1.5-1.1-2.4-1.1c-0.7,0-1.5,0.2-2,0.7c-0.7,0.4-1.1,1.3-1.1,2.2s0.2,1.8,0.7,2.4
		c2,2.4,2,6.6,0,9C32.2,64.9,32.2,72.3,36.2,77.2z"/>
	<path class="st0" d="M96,27c0-0.2,0-0.4-0.2-0.7v-0.2c0,0,0-0.2-0.2-0.2l-6.2-9.2c-0.4-0.7-1.1-0.9-1.8-0.9h-71
		c-0.9,0-1.5,0.4-2,0.9l-6.2,9.2c0,0,0,0.2-0.2,0.2v0.2C8.2,26.5,8,26.7,8,27l0,0v59.4l0,0c0,0.2,0,0.4,0.2,0.7c0,0,0,0,0,0.2l0,0
		c0,0.2,0.2,0.4,0.4,0.4l0,0C8.8,87.8,9,87.8,9,88.1h0.2c0.2,0,0.4,0.2,0.7,0.2l0,0l0,0h83.6l0,0c0.2,0,0.4,0,0.7-0.2h0.2
		c0.2,0,0.4-0.2,0.4-0.4l0,0c0.2-0.2,0.2-0.2,0.4-0.4l0,0c0,0,0,0,0-0.2s0-0.4,0.2-0.7l0,0L96,27L96,27z M17.7,20.2h68.9l3.3,4.8
		H14.4L17.7,20.2z M91.6,79.6l-2.2-3.3c-0.4-0.7-1.1-0.9-1.8-0.9h-18v0.2c-0.2,1.1-0.7,2.2-1.5,2.9c-0.9,0.7-1.8,0.9-2.6,0.9
		c-1.3,0-2.4-0.7-3.3-1.5c-0.7-0.7-1.1-1.5-1.5-2.4h-4.2v0.2c-0.2,1.1-0.7,2.2-1.5,2.9c-0.9,0.7-1.8,0.9-2.6,0.9
		c-1.3,0-2.4-0.7-3.3-1.5c-0.7-0.7-1.1-1.5-1.5-2.4h-4v0.2c-0.2,1.1-0.7,2.2-1.5,2.9c-0.9,0.7-1.8,0.9-2.6,0.9
		c-1.3,0-2.4-0.7-3.3-1.5c-0.7-0.7-1.1-1.5-1.5-2.4h-18c-0.7,0-1.3,0.4-1.8,0.9l-2.2,3.3V29.2h79.2v50.4H91.6z"/>
</g>
</svg>
