<?xml version="1.0" encoding="utf-8"?>
<!-- Generator: Adobe Illustrator 27.0.0, SVG Export Plug-In . SVG Version: 6.00 Build 0)  -->
<svg version="1.1" id="图层_1" xmlns="http://www.w3.org/2000/svg" xmlns:xlink="http://www.w3.org/1999/xlink" x="0px" y="0px"
	 viewBox="0 0 104 104" style="enable-background:new 0 0 104 104;" xml:space="preserve">
<style type="text/css">
	.st0{fill:#5A5A5A;}
</style>
<g>
	<path class="st0" d="M92,22H32.1c-1.2,0-2.4,0.6-3.2,1.6l-20,26c-1.2,1.4-1.2,3.4,0,4.8l20,26c0.8,1,2,1.6,3.2,1.6H92
		c2.2,0,4-1.8,4-4V26C96,23.8,94.2,22,92,22z M88,74H34.1l-17-22l17-22H88V74z"/>
	<path class="st0" d="M43.3,64.8c0.8,0.8,1.8,1.2,2.8,1.2c1,0,2-0.4,2.8-1.2l7.2-7.2l7.2,7.2C64,65.6,65,66,66,66s2-0.4,2.8-1.2
		c1.6-1.6,1.6-4,0-5.6L61.6,52l7.2-7.2c1.6-1.6,1.6-4,0-5.6s-4-1.6-5.6,0L56,46.4l-7.2-7.2c-1.6-1.6-4-1.6-5.6,0s-1.6,4,0,5.6
		l7.2,7.2l-7.2,7.2C41.7,60.8,41.7,63.2,43.3,64.8z"/>
</g>
</svg>
