<?xml version="1.0" encoding="utf-8"?>
<!-- Generator: Adobe Illustrator 27.0.0, SVG Export Plug-In . SVG Version: 6.00 Build 0)  -->
<svg version="1.1" id="图层_1" xmlns="http://www.w3.org/2000/svg" xmlns:xlink="http://www.w3.org/1999/xlink" x="0px" y="0px"
	 viewBox="0 0 104 104" style="enable-background:new 0 0 104 104;" xml:space="preserve">
<style type="text/css">
	.st0{fill:#5A5A5A;}
</style>
<g>
	<path class="st0" d="M88.1,25H42.3l-3.1-6.4c0,0,0-0.2-0.2-0.2c-1.3-1.8-3.5-3.1-5.9-3.1H15.3c-4-0.2-7.3,3.1-7.3,7v54.3
		c0,3.7,2.9,6.8,6.6,7.3c0.7,2.9,3.3,4.8,6.2,4.8h64c3.1,0,5.7-2.2,6.4-5.3c2.9-1.1,4.8-3.7,4.8-7V33C96,28.6,92.5,25,88.1,25z
		 M92.7,76.7c0,2.4-2,4.2-4.4,4.2H32.4c-0.9,0-1.5,0.7-1.5,1.5s0.7,1.5,1.5,1.5h55.2c-0.4,0.9-1.5,1.5-2.6,1.5H20.8
		c-1.1,0-2.2-0.7-2.9-1.5h5.9c0.9,0,1.5-0.7,1.5-1.5s-0.7-1.5-1.5-1.5h-8.4c-2.4,0-4.4-2-4.4-4.2V22.4c0-2.2,1.8-4,4-4h17.8
		c1.3,0,2.4,0.7,3.3,1.5l2.4,4.8h-8.4c-0.9,0-1.5,0.7-1.5,1.5s0.7,1.5,1.5,1.5h57.6c2.6,0,4.8,2.2,4.8,4.8v44.2H92.7z"/>
	<path class="st0" d="M65.9,45.9l-13-5.5c-0.4-0.2-1.1-0.2-1.5,0l-13,5.5c-0.7,0.2-1.1,0.9-1.1,1.8v15c0,0.7,0.4,1.3,1.1,1.8l13,5.7
		c0.2,0,0.4,0.2,0.7,0.2c0.2,0,0.4,0,0.7-0.2l13-5.5c0.7-0.2,1.1-0.9,1.1-1.8V47.7C67,46.8,66.5,46.2,65.9,45.9z M50,65.3l-9.2-4
		V50.6l9.2,4C50,54.5,50,65.3,50,65.3z M52,51.2l-8.4-3.5l8.4-3.5l8.4,3.5L52,51.2z M63.2,61.3l-9.2,4V54.5l9.2-4
		C63.2,50.6,63.2,61.3,63.2,61.3z"/>
</g>
</svg>
