<?xml version="1.0" standalone="no"?><!DOCTYPE svg PUBLIC "-//W3C//DTD SVG 1.1//EN" "http://www.w3.org/Graphics/SVG/1.1/DTD/svg11.dtd"><svg t="1698131896801" class="icon" viewBox="0 0 1024 1024" version="1.1" xmlns="http://www.w3.org/2000/svg" p-id="8703" xmlns:xlink="http://www.w3.org/1999/xlink" width="64" height="64"><path d="M1014.998 280.998l-272-272C737.6 3 729.8 0 722 0H302c-7.8 0-15.6 3-20.998 8.998l-272 272C3 286.4 0 294.2 0 302v420c0 7.8 3 15.6 9.002 20.998l272 272C286.4 1021 294.2 1024 302 1024h420c7.8 0 15.6-3 20.998-9.002l272-272C1021 737.6 1024 729.8 1024 722V302c0-7.8-3-15.6-9.002-21.002z" fill="#D94158" p-id="8704"></path><path d="M1024 302v420c0 7.8-3 15.6-9.002 20.998l-272 272C737.6 1021 729.8 1024 722 1024H512V0h210c7.8 0 15.6 3 20.998 8.998l272 272C1021 286.4 1024 294.2 1024 302z" fill="#CC2944" p-id="8705"></path><path d="M892.998 330.798L693.2 130.996C687.8 125 680 122 672.198 122H351.802c-7.8 0-15.6 3-21.002 8.998L131.002 330.8C125 336.2 122 344 122 351.798V672.2c0 7.8 3 15.6 9.002 20.998L330.8 893c5.4 6 13.2 9 21.002 9H672.2c7.8 0 15.6-3 21.002-9.002l199.798-199.802c6-5.396 9-13.196 9-20.998v-320.4c0-7.798-3-15.598-9.002-21z" fill="#E0E4EC" p-id="8706"></path><path d="M902 351.798V672.2c0 7.8-3 15.6-9.002 20.998L693.2 893c-5.4 6-13.2 9-21.002 9H512V122h160.198c7.8 0 15.6 3 21.002 8.998l199.798 199.802C899 336.2 902 344 902 351.798z" fill="#D1D7E3" p-id="8707"></path><path d="M659.602 182H364.398L182 364.398v295.198L364.398 842H659.6l182.4-182.402v-295.2L659.602 182z" fill="#D94158" p-id="8708"></path><path d="M842 364.398v295.2L659.602 842H512V182h147.602z" fill="#CC2944" p-id="8709"></path></svg>