<?xml version="1.0" encoding="utf-8"?>
<!-- Generator: Adobe Illustrator 27.0.0, SVG Export Plug-In . SVG Version: 6.00 Build 0)  -->
<svg version="1.1" id="图层_1" xmlns="http://www.w3.org/2000/svg" xmlns:xlink="http://www.w3.org/1999/xlink" x="0px" y="0px"
	 viewBox="0 0 104 104" style="enable-background:new 0 0 104 104;" xml:space="preserve">
<style type="text/css">
	.st0{fill:#5A5A5A;}
</style>
<g>
	<path class="st0" d="M90.1,49.2V34.4c0-3.3-2.7-5.7-5.9-5.7H67.3V18.4c0-3.3-2.7-5.7-5.9-5.7H36.5c-3.3,0-5.9,2.7-5.9,5.7v10.3
		H13.9c-3.3,0-5.9,2.5-5.9,5.7v14.8c0,3.5,2.5,5.7,5.9,5.7h16.6v7.4c0,1.4,0.4,2.7,1.4,3.9l9.4,8.6c1,1.2,2.7,2.1,4.5,2.1v3.7
		c0,1.6,1.4,3.1,3.1,3.1c1.6,0,3.1-1.4,3.1-3.1v-3.9c1.6,0,3.3-0.8,4.3-2.1l9.4-8.8c0.8-1,1.4-2.5,1.4-3.7v-7H84
		C87.6,55.2,90.1,52.6,90.1,49.2z"/>
	<path class="st0" d="M89.3,81.3c1.4-0.6,2.7-1.6,3.5-2.7c0.8-1.2,1.2-2.5,1.2-4.1c0-1.6-0.4-2.9-1.2-4.1s-1.8-2.1-3.3-2.7
		c-1.4-0.6-3.3-1-5.1-1h-8.6v24.6h4.9v-8.8h3.5h0.2l5.9,8.8H96L89.3,81.3z M87.2,77.2c-1,0.6-2.1,1-3.7,1h-3.1v-7.6h3.1
		c1.4,0,2.7,0.4,3.7,0.8c1,0.6,1.4,1.6,1.4,2.9C88.7,75.7,88.3,76.6,87.2,77.2z"/>
</g>
</svg>
