<?xml version="1.0" encoding="utf-8"?>
<!-- Generator: Adobe Illustrator 27.0.0, SVG Export Plug-In . SVG Version: 6.00 Build 0)  -->
<svg version="1.1" id="图层_1" xmlns="http://www.w3.org/2000/svg" xmlns:xlink="http://www.w3.org/1999/xlink" x="0px" y="0px"
	 viewBox="0 0 104 104" style="enable-background:new 0 0 104 104;" xml:space="preserve">
<style type="text/css">
	.st0{fill:#5A5A5A;}
</style>
<g>
	<path class="st0" d="M91.7,49.5V34.3c0-3.3-2.7-6-6-6H68.6V17.8c0-3.3-2.7-5.8-6-5.8H37.3c-3.3,0-6,2.7-6,6v10.4h-17
		c-3.3,0-6,2.5-6,6v15.2c0,3.5,2.5,6,6,6h17.1v7.3c0,1.5,0.4,2.9,1.5,4l9.6,8.8c1,1.2,2.7,2.1,4.6,2.1v3.8c0,1.7,1.5,3.1,3.1,3.1
		c1.7,0,3.1-1.5,3.1-3.1v-3.8c1.7,0,3.3-0.8,4.4-2.1l9.6-9c0.8-1,1.5-2.5,1.5-4v-7.1h17.1C89.2,55.5,91.7,53,91.7,49.5z"/>
	<polygon class="st0" points="84.4,87.6 84.4,67 79.4,67 79.4,92 95.7,92 95.7,87.6 	"/>
</g>
</svg>
