<?xml version="1.0" encoding="utf-8"?>
<!-- Generator: Adobe Illustrator 27.0.0, SVG Export Plug-In . SVG Version: 6.00 Build 0)  -->
<svg version="1.1" id="图层_1" xmlns="http://www.w3.org/2000/svg" xmlns:xlink="http://www.w3.org/1999/xlink" x="0px" y="0px"
	 viewBox="0 0 104 104" style="enable-background:new 0 0 104 104;" xml:space="preserve">
<style type="text/css">
	.st0{fill:#5A5A5A;}
</style>
<g>
	<path class="st0" d="M39.6,54c-0.4-0.6-0.6-1-0.8-1.7c-2.7-6.7,0.6-14.3,7.4-16.8c-0.4-2.5-0.2-4.9,0.6-7c1-3.3,1.2-6.7,0.6-10
		c-1.7-5.7-8.8-8-18-5.5c-5.1,1.5-9.8,4.1-13.5,8c-4.4,4.4-5.7,10.7-4.1,16.6c1.5,5.9,5.3,10.9,10.7,13.7
		C27.8,53.4,33.9,54.6,39.6,54z"/>
	<path class="st0" d="M61.2,55.9C56.8,61.6,48.5,62.4,43,58c-1.9,1.5-4.1,2.5-6.5,3.1c-3.3,0.8-6.3,2.3-9,4.5
		c-4.4,4.4-2.5,11.7,4.4,18.2c3.9,3.7,8.6,6.3,13.7,7.8c5.9,1.5,12.1-0.4,16.4-4.7l0,0c4.4-4.4,6.7-10,6.5-16.2
		C68,64.8,65.9,59,62.5,54.3C61.9,54.6,61.7,55.3,61.2,55.9z"/>
	<path class="st0" d="M91.9,46.2c1.5-5.1,1.2-10.7-0.2-15.7c-1.7-5.9-6.3-10.3-12.3-11.9c-5.7-1.5-11.8-0.4-17.1,2.6
		c-4.9,3.3-8.8,8-11.3,13.3c0.8,0,1.5,0,2.1,0.2c6.9,1,11.9,7.8,10.7,14.7c2.3,0.8,4.4,2.3,5.9,4.1C71.9,56,74.7,58,78,59
		C84.1,60.6,89.6,55.5,91.9,46.2z"/>
</g>
</svg>
