<?xml version="1.0" encoding="utf-8"?>
<!-- Generator: Adobe Illustrator 27.0.0, SVG Export Plug-In . SVG Version: 6.00 Build 0)  -->
<svg version="1.1" id="图层_1" xmlns="http://www.w3.org/2000/svg" xmlns:xlink="http://www.w3.org/1999/xlink" x="0px" y="0px"
	 viewBox="0 0 104 104" style="enable-background:new 0 0 104 104;" xml:space="preserve">
<style type="text/css">
	.st0{fill:#5A5A5A;}
</style>
<g>
	<path class="st0" d="M38.1,52.6c-0.4-0.6-0.6-1-0.8-1.6c-2.6-6.5,0.6-13.8,7.1-16.2C44,32.4,44.2,30.1,45,28c1-3.2,1.2-6.5,0.6-9.7
		c-1.6-5.5-8.5-7.7-17.4-5.3c-4.9,1.4-9.5,4-13,7.7c-4.2,4.2-5.5,10.3-4,16c1.4,5.7,5.1,10.5,10.3,13.2C26.7,52,32.6,53.2,38.1,52.6
		z"/>
	<path class="st0" d="M59,54.4c-4.3,5.5-12.3,6.3-17.6,2c-1.8,1.4-4,2.4-6.3,3c-3.2,0.8-6.1,2.2-8.7,4.3C22.2,67.9,24,75,30.6,81.3
		c3.8,3.6,8.3,6.1,13.2,7.5c5.7,1.4,11.7-0.4,15.8-4.5l0,0c4.2-4.2,6.5-9.7,6.3-15.6c-0.4-5.7-2.4-11.3-5.7-15.8
		C59.6,53.2,59.4,53.8,59,54.4z"/>
	<path class="st0" d="M88.6,45.1c1.4-4.9,1.2-10.3-0.2-15.2c-1.6-5.7-6.1-9.9-11.9-11.5C71,17,65.1,18,60,20.9
		c-4.7,3.2-8.5,7.7-10.9,12.8c0.8,0,1.4,0,2,0.2c6.7,1,11.5,7.5,10.3,14.2c2.2,0.8,4.2,2.2,5.7,4c2.2,2.4,4.9,4.3,8.1,5.3
		C81.1,59,86.4,54,88.6,45.1z"/>
	<g>
		<path class="st0" d="M96.6,85c0,2.2-0.8,3.9-2.4,5.1c-1.6,1.2-3.8,1.8-6.7,1.8h-9.6V67.8h8.7c2.6,0,4.7,0.6,6.3,1.8
			c1.6,1.2,2.4,2.8,2.4,5c0,2.2-0.9,3.8-2.7,4.9C95.3,80.4,96.6,82.3,96.6,85z M82.6,72v5.7h3.6c1.3,0,2.3-0.3,3.1-0.8
			c0.8-0.5,1.1-1.3,1.1-2.2c0-0.9-0.4-1.6-1.1-2c-0.7-0.5-1.8-0.7-3.1-0.7H82.6z M87.1,87.8c1.5,0,2.6-0.3,3.3-0.8
			c0.8-0.5,1.2-1.3,1.2-2.2c0-1-0.4-1.7-1.2-2.3c-0.8-0.5-1.9-0.8-3.4-0.8h-4.5v6.1H87.1z"/>
	</g>
</g>
</svg>
