<?xml version="1.0" encoding="utf-8"?>
<!-- Generator: Adobe Illustrator 27.0.0, SVG Export Plug-In . SVG Version: 6.00 Build 0)  -->
<svg version="1.1" id="图层_1" xmlns="http://www.w3.org/2000/svg" xmlns:xlink="http://www.w3.org/1999/xlink" x="0px" y="0px"
	 viewBox="0 0 104 104" style="enable-background:new 0 0 104 104;" xml:space="preserve">
<style type="text/css">
	.st0{fill:#5A5A5A;}
</style>
<g>
	<path class="st0" d="M36.9,52.8c-0.4-0.6-0.6-1-0.8-1.6c-2.6-6.5,0.6-13.9,7.2-16.2c-0.4-2.4-0.2-4.8,0.6-7c1-3.2,1.2-6.6,0.6-9.7
		c-1.6-5.6-8.5-7.7-17.5-5.4c-5,1.4-9.5,4-13.1,7.7c-4.2,4.2-5.6,10.3-4,16.1c1.4,5.8,5.2,10.5,10.3,13.3
		C25.4,52.2,31.4,53.4,36.9,52.8z"/>
	<path class="st0" d="M58,54.6c-4.4,5.6-12.3,6.4-17.7,2c-1.8,1.4-4,2.4-6.4,3c-3.2,0.8-6.2,2.2-8.7,4.4c-4.2,4.2-2.4,11.3,4.2,17.7
		c3.8,3.6,8.3,6.2,13.3,7.5c5.8,1.4,11.7-0.4,15.9-4.6l0,0c4.2-4.2,6.6-9.7,6.4-15.7c-0.5-5.7-2.5-11.3-5.8-15.9
		C58.6,53.4,58.4,54,58,54.6z"/>
	<path class="st0" d="M87.7,45.3c1.4-5,1.2-10.3-0.2-15.3c-1.6-5.8-6.2-9.9-11.9-11.5C70,16.9,64.2,17.9,59,20.9
		c-4.8,3.2-8.5,7.7-10.9,12.9c0.8,0,1.4,0,2,0.2c6.8,1,11.5,7.5,10.3,14.3c2.2,0.8,4.2,2.2,5.8,4c2.2,2.4,5,4.4,8.1,5.4
		C80.1,59.1,85.5,54.2,87.7,45.3z"/>
	<path class="st0" d="M88.7,87.3c-0.8,0.6-1.8,0.8-3,0.8s-2.2-0.4-3.2-1c-1-0.6-1.6-1.6-2.2-2.8c-0.6-1.2-0.8-2.6-0.8-4.2
		s0.2-3,0.8-4c0.6-1.2,1.2-2,2.2-2.8s2-1,3.2-1s2,0.4,3,0.8c0.8,0.6,1.4,1.4,2,2.4l3.8-2.2c-0.6-1.6-1.6-2.8-3.2-3.8
		s-3.4-1.3-5.4-1.3c-2,0-4,0.4-5.6,1.4c-1.6,1-3,2.4-4,4.2c-1,1.8-1.4,4-1.4,6.2c0,2.2,0.4,4.4,1.6,6.4c1,1.8,2.4,3.2,4,4.2
		c1.6,1,3.6,1.4,5.6,1.4c2.2,0,4-0.4,5.4-1.6c1.4-1.2,2.6-2.2,3.2-3.8l-4-1.8C90.2,85.7,89.4,86.7,88.7,87.3z"/>
</g>
</svg>
