<?xml version="1.0" encoding="utf-8"?>
<!-- Generator: Adobe Illustrator 27.0.0, SVG Export Plug-In . SVG Version: 6.00 Build 0)  -->
<svg version="1.1" id="图层_1" xmlns="http://www.w3.org/2000/svg" xmlns:xlink="http://www.w3.org/1999/xlink" x="0px" y="0px"
	 viewBox="0 0 104 104" style="enable-background:new 0 0 104 104;" xml:space="preserve">
<style type="text/css">
	.st0{fill:#5A5A5A;}
</style>
<g>
	<path class="st0" d="M37.1,52.6c-0.4-0.6-0.6-1-0.8-1.6c-2.6-6.5,0.6-13.8,7.1-16.2C43,32.4,43.2,30.1,44,28c1-3.2,1.2-6.5,0.6-9.7
		c-1.6-5.5-8.5-7.7-17.3-5.3c-4.9,1.4-9.5,3.9-13,7.7c-4.1,4.1-5.5,10.3-3.9,16c1.4,5.7,5.1,10.4,10.3,13.2
		C25.6,52,31.6,53.2,37.1,52.6z"/>
	<path class="st0" d="M58,54.4c-4.3,5.5-12.2,6.3-17.5,2c-1.8,1.4-3.9,2.4-6.3,3c-3.2,0.8-6.1,2.2-8.7,4.3
		c-4.1,4.1-2.4,11.2,4.1,17.5c3.7,3.5,8.3,6.1,13.2,7.5c5.7,1.4,11.6-0.4,15.8-4.5l0,0c4.1-4.1,6.5-9.7,6.3-15.6
		c-0.4-5.8-2.4-11.3-5.7-15.8C58.6,53.2,58.4,53.8,58,54.4z"/>
	<path class="st0" d="M87.4,45.1c1.4-4.9,1.2-10.3-0.2-15.2c-1.5-5.7-6.1-9.8-11.8-11.4C70,17,64.1,18,58.9,21
		c-4.7,3.2-8.5,7.7-10.8,12.8c0.8,0,1.4,0,2,0.2c6.7,1,11.4,7.5,10.3,14.2c2.2,0.8,4.1,2.2,5.7,3.9c2.2,2.4,4.9,4.3,8.1,5.3
		C80.1,58.9,85.3,54,87.4,45.1z"/>
	<path class="st0" d="M87.6,82.3c1.4-0.6,2.6-1.6,3.4-2.6c0.8-1.2,1.2-2.4,1.2-3.9c0-1.6-0.4-2.8-1.2-3.9c-0.8-1.2-1.8-2-3.2-2.6
		c-1.4-0.6-3.2-1-4.9-1h-8.3V92h4.8v-8.5h3.4H83l5.7,8.5h5.5L87.6,82.3z M85.7,78.4c-1,0.6-2,1-3.5,1h-3v-7.3h3
		c1.4,0,2.6,0.4,3.5,0.8c1,0.6,1.4,1.6,1.4,2.8C87,77,86.7,77.8,85.7,78.4z"/>
</g>
</svg>
