<?xml version="1.0" encoding="utf-8"?>
<!-- Generator: Adobe Illustrator 27.0.0, SVG Export Plug-In . SVG Version: 6.00 Build 0)  -->
<svg version="1.1" id="图层_1" xmlns="http://www.w3.org/2000/svg" xmlns:xlink="http://www.w3.org/1999/xlink" x="0px" y="0px"
	 viewBox="0 0 104 104" style="enable-background:new 0 0 104 104;" xml:space="preserve">
<style type="text/css">
	.st0{fill:#5A5A5A;}
</style>
<g>
	<path class="st0" d="M62.2,23.7c0-0.5-0.2-1-0.6-1.3l-1.4-1.3c-0.7-0.7-1.8-0.7-2.5,0l-5.5,5.1c-2.2,2-3.4,4.9-3.4,7.7v37.5
		c0,0.9-0.4,1.8-1.1,2.5L42.3,79c-0.4,0.3-0.6,0.8-0.6,1.3s0.2,1,0.6,1.3l1.4,1.3c0.4,0.3,0.8,0.5,1.3,0.5s0.9-0.2,1.3-0.5l5.5-5.1
		c1.9-1.9,2.8-3.8,2.8-6.4V33.9c0-1.3,0.7-2.8,1.7-3.8l5.5-5.1C62,24.7,62.2,24.2,62.2,23.7z"/>
	<path class="st0" d="M26.3,34.3C16.2,34.3,8,42.5,8,52.6C8,62.8,16.2,71,26.3,71s18.3-8.2,18.3-18.3C44.7,42.5,36.5,34.3,26.3,34.3
		z M26.3,67.5c-8.2,0-14.9-6.7-14.9-14.9s6.7-14.9,14.9-14.9s14.9,6.7,14.9,14.9S34.5,67.5,26.3,67.5z"/>
	<path class="st0" d="M77.7,34.3c-10.1,0-18.3,8.2-18.3,18.3s8.2,18.3,18.3,18.3C87.8,71,96,62.8,96,52.6
		C96,42.5,87.8,34.3,77.7,34.3z M77.7,67.5c-8.2,0-14.9-6.7-14.9-14.9s6.7-14.9,14.9-14.9s14.9,6.7,14.9,14.9S85.9,67.5,77.7,67.5z"
		/>
</g>
</svg>
