<?xml version="1.0" encoding="utf-8"?>
<!-- Generator: Adobe Illustrator 27.0.0, SVG Export Plug-In . SVG Version: 6.00 Build 0)  -->
<svg version="1.1" id="图层_1" xmlns="http://www.w3.org/2000/svg" xmlns:xlink="http://www.w3.org/1999/xlink" x="0px" y="0px"
	 viewBox="0 0 104 104" style="enable-background:new 0 0 104 104;" xml:space="preserve">
<style type="text/css">
	.st0{fill:#5A5A5A;}
</style>
<g>
	<path class="st0" d="M96,42.5v-0.2c0-0.2-0.2-0.4-0.4-0.7l-22-22c-0.2-0.2-0.4-0.2-0.7-0.4h-0.2c0,0-0.2,0-0.4,0H13.5
		C10.4,18.9,8,21.4,8,24.4v55c0,3.1,2.4,5.5,5.5,5.5h77c3.1,0,5.5-2.4,5.5-5.5V42.7V42.5z M74,25.3l15.8,15.6H76
		c-1.1,0-1.8-0.9-1.8-1.8V25.3H74z M92.3,79.4c0,1.1-0.9,1.8-1.8,1.8h-77c-1.1,0-1.8-0.9-1.8-1.8v-55c0-1.1,0.9-1.8,1.8-1.8h56.8
		v16.5c0,3.1,2.4,5.5,5.5,5.5h16.5V79.4z"/>
	<path class="st0" d="M35.3,60.3h10.8v6.8c-1.1,0.9-2.6,1.8-4.6,2.6c-2,0.9-4,1.1-6.2,1.1c-2.4,0-4.6-0.4-6.8-1.5s-3.7-2.6-4.8-4.8
		c-1.1-2.2-1.8-4.8-1.8-8.1c0-2.6,0.4-5.1,1.3-7.5c0.4-1.3,1.3-2.4,2.4-3.5s2.2-2,4-2.6c1.5-0.7,3.5-1.1,5.7-1.1
		c1.8,0,3.5,0.2,5.1,0.9c1.5,0.7,2.6,1.5,3.5,2.6s1.5,2.4,2,4.4l4.4-1.1c-0.7-2.4-1.5-4.4-2.9-5.9c-1.1-1.5-2.9-2.6-5.1-3.5
		c-2.2-0.9-4.6-1.3-7.3-1.3c-3.7,0-6.8,0.7-9.7,2.2s-4.8,3.5-6.4,6.8c-1.5,3.1-2.2,6.4-2.2,9.9s0.7,6.8,2.2,9.7
		c1.5,2.9,3.7,5.1,6.6,6.6s6.2,2.2,9.9,2.2c2.6,0,5.3-0.4,7.7-1.5s5.1-2.4,7.5-4.4V55.5H35.1C35.1,55.9,35.1,60.3,35.3,60.3z"/>
	<path class="st0" d="M64.8,71.5c-0.9,0.7-1.8,1.1-2.9,1.1c-1.5,0-2.6-0.4-3.5-1.5s-1.3-2.9-1.3-5.3s0.4-4,1.3-5.1
		c0.9-1.1,2.2-1.5,3.7-1.5c1.1,0,1.8,0.2,2.6,0.9c0.9,0.7,1.1,1.5,1.5,2.6l2.9-0.4c-0.4-1.8-1.1-3.1-2.4-4.2
		c-1.3-0.9-2.9-1.5-4.6-1.5c-1.5,0-2.9,0.4-4.2,1.1c-1.3,0.7-2.2,1.8-2.9,3.3c-0.7,1.3-0.9,3.1-0.9,5.1c0,2.9,0.7,5.3,2.2,6.8
		s3.3,2.4,5.7,2.4c2,0,3.5-0.7,4.8-1.8c1.3-1.1,2.2-2.6,2.4-4.8l-2.9-0.4C66.1,69.8,65.4,70.9,64.8,71.5z"/>
	<path class="st0" d="M70.7,65.8c0,3.1,0.7,5.3,2.2,6.8s3.5,2.4,5.9,2.4c1.5,0,2.9-0.4,4.2-1.1c1.3-0.7,2.2-1.8,2.9-3.1
		c0.7-1.3,1.1-3.1,1.1-5.3c0-2.9-0.7-5.1-2.2-6.6s-3.5-2.4-5.9-2.4c-2.2,0-4,0.7-5.5,2C71.6,60.1,70.7,62.5,70.7,65.8z M75.1,60.7
		c1.1-1.1,2.2-1.8,3.7-1.8s2.6,0.7,3.7,1.8s1.5,2.9,1.5,5.1c0,2.2-0.4,4-1.5,5.3s-2.2,1.8-3.7,1.8s-2.6-0.7-3.7-1.8
		s-1.5-2.9-1.5-5.1C73.6,63.8,74.2,61.8,75.1,60.7z"/>
</g>
</svg>
