<?xml version="1.0" encoding="utf-8"?>
<!-- Generator: Adobe Illustrator 27.0.0, SVG Export Plug-In . SVG Version: 6.00 Build 0)  -->
<svg version="1.1" id="图层_1" xmlns="http://www.w3.org/2000/svg" xmlns:xlink="http://www.w3.org/1999/xlink" x="0px" y="0px"
	 viewBox="0 0 104 104" style="enable-background:new 0 0 104 104;" xml:space="preserve">
<style type="text/css">
	.st0{fill:#5A5A5A;}
</style>
<g>
	<path class="st0" d="M14.4,52.2c0.4,0,0.8-0.2,1.2-0.6c0.6-0.4,13.3-12.1,34.3,1.8c7.2,4.7,13.3,6.4,18.1,6.4
		c9.2,0,14.8-5.9,17.8-9.2c0,0.2,0,0.4,0,0.4c0,4.5-0.8,8.8-2.3,12.7h2.3c0.4,0,0.6,0,1,0.2c1.4-4.1,2.1-8.4,2.1-12.9
		c0-21.7-17.4-39-39-39c-21.3,0-38.8,17.4-38.8,39s17.6,39,39,39c8.2,0,16-2.5,22.2-7v-4.1c-6,4.9-13.9,7.8-22.2,7.8
		C30.8,86.7,15,71.3,14.4,52.2z M50.1,15.3c17.8,0,32.4,12.9,35.3,29.9c-0.2,0-0.4,0.2-0.4,0.2c-0.6,0.4-1,1-1.8,1.8
		c-4.1,4.7-12.7,14.4-30.8,2.5c-12.5-8.2-22.6-8.2-28.8-6.7c-4.1,1-7,2.7-9,3.9C16.5,29.2,31.8,15.3,50.1,15.3z"/>
	<polygon class="st0" points="82.3,87.9 82.3,68.6 77.6,68.6 77.6,92 92.8,92 92.8,87.9 	"/>
</g>
</svg>
