<?xml version="1.0" encoding="utf-8"?>
<!-- Generator: Adobe Illustrator 27.0.0, SVG Export Plug-In . SVG Version: 6.00 Build 0)  -->
<svg version="1.1" id="图层_1" xmlns="http://www.w3.org/2000/svg" xmlns:xlink="http://www.w3.org/1999/xlink" x="0px" y="0px"
	 viewBox="0 0 104 104" style="enable-background:new 0 0 104 104;" xml:space="preserve">
<style type="text/css">
	.st0{fill:#5A5A5A;}
</style>
<path class="st0" d="M53.1,12h-2.2C29.4,12,12,29.4,12,50.9v2.2C12,74.6,29.4,92,50.9,92h2.2C74.6,92,92,74.6,92,53.1v-2.2
	C92,29.4,74.6,12,53.1,12z M50.9,15.5h2.2c18,0,32.9,13.5,35.1,31c-0.4,0.4-0.8,0.9-1.4,1.5c-4.3,4.9-13.3,15.1-32.4,2.6
	c-13.1-8.6-23.7-8.6-30.3-7c-3.7,0.9-6.4,2.3-8.5,3.5C17.6,29.4,32.7,15.5,50.9,15.5z M53.1,88.5h-2.2c-19.5,0-35.4-15.9-35.4-35.4
	v-0.3c0.1-0.1,0.2-0.1,0.3-0.2c0.6-0.4,14-12.7,36,1.9c7.6,4.9,14,6.7,19,6.7c8.7,0,14.4-5.1,17.7-8.6v0.5
	C88.5,72.6,72.6,88.5,53.1,88.5z"/>
</svg>
