<?xml version="1.0" encoding="utf-8"?>
<!-- Generator: Adobe Illustrator 27.0.0, SVG Export Plug-In . SVG Version: 6.00 Build 0)  -->
<svg version="1.1" id="图层_1" xmlns="http://www.w3.org/2000/svg" xmlns:xlink="http://www.w3.org/1999/xlink" x="0px" y="0px"
	 viewBox="0 0 104 104" style="enable-background:new 0 0 104 104;" xml:space="preserve">
<style type="text/css">
	.st0{fill:#5A5A5A;}
</style>
<g>
	<path class="st0" d="M13.5,51.9c0.4,0,0.8-0.2,1.2-0.6c0.6-0.4,13.2-12.1,34.3,1.8c7.2,4.7,13.2,6.4,18.1,6.4
		c9.1,0,14.8-5.8,17.7-9.1c0,0.2,0,0.4,0,0.4c0,4.5-0.8,8.8-2.3,12.7h2.3c0.4,0,0.6,0,1,0.2c1.4-4.1,2.1-8.4,2.1-12.8
		C87.9,29.3,70.6,12,49,12c-21.2,0-38.7,17.3-38.7,38.9s17.5,38.9,38.9,38.9c8.2,0,16-2.5,22.2-7v-4.1c-6,4.9-13.8,7.8-22.2,7.8
		C29.9,86.5,14.1,71.1,13.5,51.9z M49.1,15.2C66.8,15.2,81.4,28,84.3,45c-0.2,0-0.4,0.2-0.4,0.2c-0.6,0.4-1,1-1.8,1.8
		c-4,4.6-12.5,14.3-30.6,2.4c-12.5-8.2-22.6-8.2-28.8-6.6c-4.1,1-7,2.7-9,3.9C15.6,29,30.8,15.2,49.1,15.2z"/>
	<path class="st0" d="M87.3,82.4c1.4-0.6,2.5-1.6,3.3-2.5c0.8-1.2,1.2-2.3,1.2-3.9c0-1.6-0.4-2.7-1.2-3.9c-0.8-1.2-1.8-1.9-3.1-2.5
		c-1.4-0.6-3.1-1-4.9-1h-8.2V92h4.7v-8.4h3.3h0.2l5.6,8.4h5.5L87.3,82.4z M85.3,78.5c-1,0.6-1.9,1-3.5,1h-2.9v-7.2h2.9
		c1.4,0,2.5,0.4,3.5,0.8c1,0.6,1.4,1.6,1.4,2.7C86.7,77.2,86.3,77.9,85.3,78.5z"/>
</g>
</svg>
