<?xml version="1.0" encoding="utf-8"?>
<!-- Generator: Adobe Illustrator 27.0.0, SVG Export Plug-In . SVG Version: 6.00 Build 0)  -->
<svg version="1.1" id="图层_1" xmlns="http://www.w3.org/2000/svg" xmlns:xlink="http://www.w3.org/1999/xlink" x="0px" y="0px"
	 viewBox="0 0 104 104" style="enable-background:new 0 0 104 104;" xml:space="preserve">
<style type="text/css">
	.st0{fill:#5A5A5A;}
</style>
<g>
	<path class="st0" d="M92.1,51.3L53.4,12.6c-0.8-0.8-2-0.8-2.8,0l0,0l0,0L11.9,51.3c-0.4,0.4-0.6,0.8-0.6,1.4c0,0.6,0.2,1,0.6,1.4
		s1,0.6,1.4,0.6s1-0.2,1.4-0.6L52,17l37.3,37.3c0.4,0.4,1,0.6,1.4,0.6s1-0.2,1.4-0.6C92.9,53.3,92.9,52.1,92.1,51.3z"/>
	<path class="st0" d="M81.5,57.4c-1,0-2,1-2,2v17.9c0,3.9-1,6.7-2.8,8.3c-2.6,2.4-6.5,2-6.7,2h-0.2H34.3c-3.3,0-5.9-1-7.5-2.6
		c-2.6-3-2.2-7.6-2.2-7.6v-0.2V59.4c0-1-0.8-2-2-2s-2,1-2,2v17.9c0,1-0.4,6.5,3.3,10.6c2.4,2.6,5.9,4.1,10.6,4.1h35.2
		c0.2,0,0.4,0,1,0c1.8,0,5.7-0.4,8.8-3.1c2.8-2.4,4.3-6.3,4.3-11.4V59.4C83.6,58.2,82.5,57.4,81.5,57.4z"/>
</g>
</svg>
