<?xml version="1.0" encoding="utf-8"?>
<!-- Generator: Adobe Illustrator 27.0.0, SVG Export Plug-In . SVG Version: 6.00 Build 0)  -->
<svg version="1.1" id="图层_1" xmlns="http://www.w3.org/2000/svg" xmlns:xlink="http://www.w3.org/1999/xlink" x="0px" y="0px"
	 viewBox="0 0 104 104" style="enable-background:new 0 0 104 104;" xml:space="preserve">
<style type="text/css">
	.st0{fill:#5A5A5A;}
</style>
<g>
	<g>
		<path class="st0" d="M87.5,33.6c-2.8-5.4-6.9-10.3-11.9-13.9c-0.5-0.4-1.3-0.3-1.6,0.3c-0.4,0.5-0.3,1.3,0.3,1.6
			c9.3,6.8,15,17.7,15.4,29.2h-8.9v-9c0-5.2-3.7-9.5-8.6-10.6c-2-5.6-4.8-10.4-8.1-13.7c-0.7-0.7-1.4-1.4-2.2-1.9
			c2.7,0.7,5.4,1.8,7.9,3.1c0.6,0.3,1.3,0.1,1.6-0.5c0.3-0.6,0.1-1.3-0.5-1.6C65.1,13.6,58.6,12,52,12c-10.7,0-20.7,4.2-28.3,11.7
			S12,41.3,12,52c0,4.1,0.6,8.1,1.8,11.9c0.2,0.5,0.6,0.8,1.1,0.8c0.1,0,0.2,0,0.3-0.1c0.6-0.2,1-0.9,0.8-1.5c-1-3.2-1.6-6.6-1.7-10
			h8.9v8.7c0,5.2,3.6,9.5,8.5,10.5c2,5.7,4.8,10.5,8.1,13.9c0.7,0.7,1.5,1.4,2.2,2c-10.6-2.9-19.7-10.4-24.4-20.8
			c-0.3-0.6-1-0.9-1.6-0.6c-0.6,0.3-0.9,1-0.6,1.6c3.1,6.9,8.2,12.7,14.5,16.9C36.6,89.7,44.2,92,52,92c10.7,0,20.7-4.2,28.3-11.7
			C87.8,72.7,92,62.7,92,52C92,45.6,90.5,39.3,87.5,33.6L87.5,33.6z M69.5,31.1H53.2V14.4c3.2,0.3,6.4,2,9.2,4.8
			C65.2,22.2,67.7,26.2,69.5,31.1z M50.8,31.1H34.5c1.8-4.9,4.3-8.9,7.2-11.8c2.8-2.9,6-4.5,9.2-4.8V31.1z M14.4,50.8
			C14.9,34,26.5,19.9,42.1,15.7c-0.7,0.6-1.5,1.2-2.2,1.9c-3.3,3.4-6.1,8.1-8.1,13.7c-4.9,1-8.6,5.4-8.6,10.6v9L14.4,50.8z
			 M25.7,61.9v-20c0-4.6,3.8-8.4,8.4-8.4h35.8c4.6,0,8.4,3.8,8.4,8.4v20c0,4.6-3.8,8.4-8.4,8.4H34.1C29.4,70.3,25.7,66.5,25.7,61.9z
			 M34.4,72.7h16.4v16.9C44.2,88.9,38.1,82.6,34.4,72.7z M61.9,88.3c3.2-2.5,6.1-6.3,8.4-11.2c0.3-0.6,0-1.3-0.6-1.6
			c-0.6-0.3-1.3,0-1.6,0.6c-3.8,8-9.2,12.9-15,13.4V72.7h16.7c5.9,0,10.8-4.8,10.8-10.8v-8.7h8.9C89.1,70,77.5,84.1,61.9,88.3
			L61.9,88.3z"/>
		<path class="st0" d="M51.7,45.2h15.8c-1.2,2.4-3,5.1-5.1,7.5c-0.2,0.2-0.4,0.5-0.6,0.7c-0.9-1.1-1.7-2.2-2.3-3.3
			c-0.3-0.6-1-0.8-1.6-0.5c-0.6,0.3-0.8,1-0.5,1.6c0.7,1.2,1.6,2.6,2.7,3.9c-1.9,1.9-3.8,3.5-5.6,4.7c-0.5,0.4-0.7,1.1-0.3,1.6
			c0.4,0.5,1.1,0.7,1.6,0.3c1.9-1.2,4-3,5.9-4.9c0.1,0.1,0.2,0.2,0.4,0.4c2,1.9,4.1,3.5,6.1,4.6c0.6,0.3,1.3,0.1,1.6-0.5
			c0.3-0.6,0.1-1.3-0.5-1.6c-1.8-0.9-3.7-2.4-5.5-4.2c-0.1-0.1-0.3-0.3-0.4-0.4c0.3-0.3,0.5-0.6,0.8-0.9c2.5-3,4.6-6.2,6-9.1h2.5
			c0.6,0,1.2-0.5,1.2-1.2s-0.5-1.2-1.2-1.2h-9.5v-4.5c0-0.6-0.5-1.2-1.2-1.2s-1.2,0.5-1.2,1.2v4.5h-9.1c-0.6,0-1.2,0.5-1.2,1.2
			S51,45.2,51.7,45.2L51.7,45.2z"/>
		<path class="st0" d="M44.8,58.5l1.5,3.9c0.2,0.6,0.9,0.9,1.5,0.7c0.6-0.2,0.9-0.9,0.7-1.5l-7.1-18.8c0,0,0,0,0,0
			c-0.2-0.6-0.8-1-1.5-1c0,0,0,0,0,0c-0.7,0-1.2,0.4-1.5,1c0,0,0,0,0,0l-7.2,18.8c-0.2,0.6,0.1,1.3,0.7,1.5c0.6,0.2,1.3-0.1,1.5-0.7
			l1.5-3.9H44.8z M39.9,45.5l4,10.7h-8.1L39.9,45.5z"/>
	</g>
</g>
</svg>
