<?xml version="1.0" encoding="utf-8"?>
<!-- Generator: Adobe Illustrator 27.0.0, SVG Export Plug-In . SVG Version: 6.00 Build 0)  -->
<svg version="1.1" id="图层_1" xmlns="http://www.w3.org/2000/svg" xmlns:xlink="http://www.w3.org/1999/xlink" x="0px" y="0px"
	 viewBox="0 0 104 104" style="enable-background:new 0 0 104 104;" xml:space="preserve">
<style type="text/css">
	.st0{fill:#5A5A5A;}
</style>
<g>
	<path class="st0" d="M52.2,73.3c-1.5,0-2.6,1.1-2.6,2.6v6.2c0,1.5,1.1,2.6,2.6,2.6s2.6-1.1,2.6-2.6V76
		C54.9,74.4,53.8,73.3,52.2,73.3z"/>
	<path class="st0" d="M75.1,69.2c-0.7-1.3-2.4-1.8-3.5-0.9c-1.3,0.7-1.8,2.4-0.9,3.5l3.1,5.3c0.4,0.9,1.3,1.3,2.2,1.3
		c0.4,0,0.9,0,1.3-0.4c1.3-0.7,1.8-2.4,0.9-3.5L75.1,69.2z"/>
	<path class="st0" d="M94.7,56.4l-5.3-3.1c-1.3-0.7-2.9-0.2-3.5,0.9c-0.7,1.1-0.2,2.9,0.9,3.5l5.3,3.1c0.4,0.2,0.9,0.4,1.3,0.4
		c0.9,0,1.8-0.4,2.2-1.3C96.4,58.6,96,57.1,94.7,56.4z"/>
	<path class="st0" d="M32.4,68.3c-1.3-0.7-2.9-0.2-3.5,0.9l-3.1,5.3c-0.7,1.3-0.2,2.9,0.9,3.5c0.4,0.2,0.9,0.4,1.3,0.4
		c0.9,0,1.8-0.4,2.2-1.3l3.1-5.3C34.2,70.5,33.7,68.9,32.4,68.3z"/>
	<path class="st0" d="M14.7,53.1l-5.3,3.1c-1.3,0.9-1.8,2.4-0.9,3.7c0.4,0.9,1.3,1.3,2.2,1.3c0.4,0,0.9,0,1.3-0.4l5.3-3.1
		c1.3-0.7,1.8-2.2,0.9-3.5C17.5,52.9,16,52.4,14.7,53.1z"/>
	<path class="st0" d="M79.5,42.1h-55c-6.2,0-11.4-5.1-11.4-11.4s5.1-11.4,11.4-11.4h55.2c6.2,0,11.4,5.1,11.4,11.4
		S85.9,42.1,79.5,42.1z"/>
</g>
</svg>
