<?xml version="1.0" encoding="utf-8"?>
<!-- Generator: Adobe Illustrator 27.0.0, SVG Export Plug-In . SVG Version: 6.00 Build 0)  -->
<svg version="1.1" id="图层_1" xmlns="http://www.w3.org/2000/svg" xmlns:xlink="http://www.w3.org/1999/xlink" x="0px" y="0px"
	 viewBox="0 0 104 104" style="enable-background:new 0 0 104 104;" xml:space="preserve">
<style type="text/css">
	.st0{fill:#5A5A5A;}
</style>
<g>
	<path class="st0" d="M56.2,44.3c1.5-1.1,2.2-2.6,2.2-4.4s-0.7-3.1-2.2-4s-3.5-1.3-6.2-1.3h-7.9V46h7.7
		C52.4,46.1,54.6,45.4,56.2,44.3z"/>
	<path class="st0" d="M12.4,8v88h79.2V8H12.4z M69.4,76.4c-4,3.1-9.5,4.4-16.3,4.4H28.9V23h22.2c6.2,0,11.4,1.3,15.4,4.2
		s5.9,6.8,5.9,12.1s-2,9-6.2,11.7c5.9,2.4,9,6.8,9,13.2C75.3,69.4,73.3,73.6,69.4,76.4z"/>
	<path class="st0" d="M58.8,58.8c-1.5-1.1-3.7-1.5-6.6-1.5H42.1v12.1h10.1c2.9,0,5.1-0.4,6.6-1.5s2.4-2.4,2.4-4.4
		S60.4,59.9,58.8,58.8z"/>
</g>
</svg>
