<?xml version="1.0" encoding="utf-8"?>
<!-- Generator: Adobe Illustrator 27.0.0, SVG Export Plug-In . SVG Version: 6.00 Build 0)  -->
<svg version="1.1" id="图层_1" xmlns="http://www.w3.org/2000/svg" xmlns:xlink="http://www.w3.org/1999/xlink" x="0px" y="0px"
	 viewBox="0 0 104 104" style="enable-background:new 0 0 104 104;" xml:space="preserve">
<style type="text/css">
	.st0{fill:#5A5A5A;}
</style>
<path class="st0" d="M12.4,8v88h79.2V8H12.4z M42.8,61.5c1.3,2.6,2.9,4.8,5.1,6.2c2,1.3,4.4,2.2,7,2.2c5.3,0,9-2.6,11.4-8.1
	l11.2,6.6c-0.9,2.6-2.2,4.8-4.4,7c-2.2,2.2-4.6,3.7-7.7,5.1c-3.1,1.3-6.6,2-10.3,2c-5.3,0-9.9-1.3-14.3-3.7
	c-4.4-2.4-7.7-5.9-10.3-10.6s-3.7-9.9-3.7-15.8s1.2-11.4,3.6-16c2.6-4.6,5.9-8.1,10.3-10.6s9-3.7,14.3-3.7c3.7,0,7.3,0.7,10.3,2
	c3.1,1.3,5.7,3.1,7.7,5.1s3.5,4.4,4.4,7l-11.2,6.6c-2.4-5.5-6.2-8.1-11.4-8.1c-2.6,0-4.8,0.7-7,2.2c-2,1.3-3.7,3.5-5.1,6.2
	c-1.3,2.6-1.8,5.7-1.8,9.5C40.8,55.5,41.4,58.6,42.8,61.5z"/>
</svg>
