<?xml version="1.0" encoding="utf-8"?>
<!-- Generator: Adobe Illustrator 27.0.0, SVG Export Plug-In . SVG Version: 6.00 Build 0)  -->
<svg version="1.1" id="图层_1" xmlns="http://www.w3.org/2000/svg" xmlns:xlink="http://www.w3.org/1999/xlink" x="0px" y="0px"
	 viewBox="0 0 104 104" style="enable-background:new 0 0 104 104;" xml:space="preserve">
<style type="text/css">
	.st0{fill:#5A5A5A;}
</style>
<g>
	<path class="st0" d="M46.5,34.4h-5.9V50h5.9c3.1,0,5.5-0.7,7.7-1.8s3.3-3.3,3.3-6.2C57.3,37,53.8,34.4,46.5,34.4z"/>
	<path class="st0" d="M12.4,8v88h79.2V8H12.4z M61,80.8L48.3,61.2h-0.4h-7.3v19.6H26.9V23H48c4.8,0,9,0.9,12.5,2.4s6.4,3.7,8.1,6.8
		c2,2.9,2.9,6.2,2.9,10.1c0,3.7-0.9,6.8-2.6,9.7c-1.8,2.9-4.2,5.1-7.5,6.6L77.1,81L61,80.8z"/>
</g>
</svg>
