<?xml version="1.0" encoding="utf-8"?>
<!-- Generator: Adobe Illustrator 27.0.0, SVG Export Plug-In . SVG Version: 6.00 Build 0)  -->
<svg version="1.1" id="图层_1" xmlns="http://www.w3.org/2000/svg" xmlns:xlink="http://www.w3.org/1999/xlink" x="0px" y="0px"
	 viewBox="0 0 104 104" style="enable-background:new 0 0 104 104;" xml:space="preserve">
<style type="text/css">
	.st0{fill:#5A5A5A;}
</style>
<g>
	<path class="st0" d="M95.3,42.4h-5.1c-0.3,0-0.5,0.1-0.6,0.4c-0.9,1.6-2.2,3-3.7,3.9c-1.5,0.9-3.3,1.4-5,1.4
		c-3.6,0-6.9-2.1-8.7-5.4c-0.1-0.2-0.4-0.4-0.6-0.4h-39c-0.3,0-0.5,0.1-0.6,0.4c-0.9,1.6-2.2,3-3.7,3.9c-1.5,0.9-3.3,1.4-5,1.4
		c-3.6,0-6.9-2.1-8.7-5.4c-0.1-0.2-0.4-0.4-0.6-0.4H8.7c-0.4,0-0.7,0.3-0.7,0.7V45c0,0.4,0.3,0.7,0.7,0.7h3.5
		c2.9,3.7,6.7,5.7,10.7,5.7c3.1,0,6.2-1.2,8.9-3.5c0.8-0.7,1.5-1.4,2.1-2.2H70c2.9,3.7,6.7,5.7,10.7,5.7c3.1,0,6.2-1.2,8.9-3.5
		c0.8-0.7,1.5-1.4,2.1-2.2h3.5c0.4,0,0.7-0.3,0.7-0.7v-1.9C96,42.7,95.7,42.4,95.3,42.4z"/>
	<path class="st0" d="M23.1,39.5c5,0,9-4,9-9c0-5-4-9-9-9s-9,4-9,9C14.1,35.5,18.2,39.5,23.1,39.5z M23.1,24.1
		c3.6,0,6.5,2.9,6.5,6.5c0,3.6-2.9,6.5-6.5,6.5s-6.5-2.9-6.5-6.5C16.7,27,19.6,24.1,23.1,24.1z"/>
	<path class="st0" d="M80.9,39.5c5,0,9-4,9-9c0-5-4-9-9-9s-9,4-9,9C71.8,35.5,75.9,39.5,80.9,39.5z M80.9,24.1
		c3.6,0,6.5,2.9,6.5,6.5c0,3.6-2.9,6.5-6.5,6.5s-6.5-2.9-6.5-6.5C74.4,27,77.3,24.1,80.9,24.1z"/>
	<path class="st0" d="M71.8,53.2L71.8,53.2c-8.1,0-14.6,6.6-14.6,14.6v0c0,8.1,6.6,14.6,14.6,14.6h0c8.1,0,14.6-6.6,14.6-14.6v0
		C86.5,59.8,79.9,53.2,71.8,53.2z M71.8,80.7c-7.1,0-12.8-5.8-12.8-12.8C59,60.8,64.8,55,71.8,55c7.1,0,12.8,5.8,12.8,12.8
		C84.7,74.9,78.9,80.7,71.8,80.7z"/>
	<path class="st0" d="M73.3,67.2v-7.9c0-0.8-0.6-1.4-1.4-1.4c-0.8,0-1.4,0.6-1.4,1.4v8.5c0,0.4,0.2,0.7,0.4,1l4,4
		c0.3,0.3,0.6,0.4,1,0.4c0.4,0,0.7-0.1,1-0.4c0.3-0.3,0.4-0.6,0.4-1s-0.2-0.7-0.4-1L73.3,67.2z"/>
	<path class="st0" d="M56.2,63.9c0.3-1.1,0.7-2.1,1.2-3.1l-5-8.7c-0.2-0.3-0.7-0.3-0.8,0l-9,15.6c-0.1,0.1-0.1,0.3,0,0.5
		c0.1,0.1,0.2,0.2,0.4,0.2h12.7c0-0.2,0-0.4,0-0.5c0-0.6,0.1-1.3,0.1-1.9h-9.2l5.4-9.4L56.2,63.9z"/>
</g>
</svg>
