<?xml version="1.0" encoding="utf-8"?>
<!-- Generator: Adobe Illustrator 27.0.0, SVG Export Plug-In . SVG Version: 6.00 Build 0)  -->
<svg version="1.1" id="图层_1" xmlns="http://www.w3.org/2000/svg" xmlns:xlink="http://www.w3.org/1999/xlink" x="0px" y="0px"
	 viewBox="0 0 104 104" style="enable-background:new 0 0 104 104;" xml:space="preserve">
<style type="text/css">
	.st0{fill:#5A5A5A;}
</style>
<g>
	<path class="st0" d="M95.4,49.6h-5.1c-0.2,0-0.4,0.1-0.5,0.3c-0.9,1.7-2.2,3-3.8,4c-1.6,1-3.3,1.5-5.1,1.5c-3.7,0-7.1-2.1-8.9-5.5
		c-0.1-0.2-0.3-0.3-0.5-0.3H32.4c-0.2,0-0.4,0.1-0.5,0.3c-0.9,1.7-2.2,3-3.8,4c-1.6,1-3.3,1.5-5.1,1.5c-3.7,0-7.1-2.1-8.9-5.5
		c-0.1-0.2-0.3-0.3-0.5-0.3h-5c-0.3,0-0.6,0.3-0.6,0.6v1.9c0,0.3,0.3,0.6,0.6,0.6h3.6c2.9,3.7,6.7,5.7,10.7,5.7
		c3.1,0,6.1-1.2,8.8-3.5c0.8-0.7,1.5-1.4,2.2-2.3h36.2c2.9,3.7,6.7,5.7,10.7,5.7c3.1,0,6.1-1.2,8.8-3.5c0.8-0.7,1.5-1.4,2.2-2.3h3.6
		c0.3,0,0.6-0.3,0.6-0.6V50C96,49.9,95.7,49.6,95.4,49.6z"/>
	<path class="st0" d="M52.3,59.2c-0.1-0.2-0.5-0.2-0.6,0l-9,15.7c-0.1,0.1-0.1,0.3,0,0.4s0.2,0.2,0.3,0.2h18.1
		c0.1,0,0.3-0.1,0.3-0.2c0.1-0.1,0.1-0.3,0-0.4L52.3,59.2z M46.4,73.2l5.6-9.7l5.6,9.7H46.4z"/>
	<path class="st0" d="M23,46.6c5,0,9.1-4.1,9.1-9.1s-4.1-9-9.1-9s-9.1,4.1-9.1,9.1S18,46.6,23,46.6z M23,31.1c3.6,0,6.5,2.9,6.5,6.5
		s-2.9,6.5-6.5,6.5s-6.5-2.9-6.5-6.5S19.5,31.1,23,31.1z"/>
	<path class="st0" d="M81,46.6c5,0,9.1-4.1,9.1-9.1s-4.1-9-9.1-9s-9.1,4.1-9.1,9.1S76,46.6,81,46.6z M81,31.1c3.6,0,6.5,2.9,6.5,6.5
		s-2.9,6.5-6.5,6.5s-6.5-2.9-6.5-6.5S77.4,31.1,81,31.1z"/>
</g>
</svg>
