<?xml version="1.0" encoding="utf-8"?>
<!-- Generator: Adobe Illustrator 27.0.0, SVG Export Plug-In . SVG Version: 6.00 Build 0)  -->
<svg version="1.1" id="图层_1" xmlns="http://www.w3.org/2000/svg" xmlns:xlink="http://www.w3.org/1999/xlink" x="0px" y="0px"
	 viewBox="0 0 104 104" style="enable-background:new 0 0 104 104;" xml:space="preserve">
<style type="text/css">
	.st0{fill:#5A5A5A;}
</style>
<g>
	<path class="st0" d="M23.1,40.5c5,0,9-4,9-9s-4-9-9-9s-9,4-9,9C14.1,36.5,18.2,40.5,23.1,40.5z M23.1,25c3.6,0,6.5,2.9,6.5,6.5
		S26.7,38,23.1,38s-6.5-2.9-6.5-6.5C16.7,27.9,19.6,25,23.1,25z"/>
	<path class="st0" d="M80.9,40.5c5,0,9-4,9-9s-4-9-9-9s-9,4-9,9C71.8,36.5,75.9,40.5,80.9,40.5z M80.9,25c3.6,0,6.5,2.9,6.5,6.5
		S84.5,38,80.9,38s-6.5-2.9-6.5-6.5S77.3,25,80.9,25z"/>
	<path class="st0" d="M80.7,62.8C80.7,62.8,80.7,62.7,80.7,62.8l-6-0.9c-0.5-0.1-0.9-0.6-0.8-1.1v-0.1v-9.5c0-0.6-0.3-1.1-0.7-1.4
		l0,0c-0.2-0.1-0.3-0.2-0.5-0.3s-0.4-0.1-0.6-0.1H72c-1,0-1.9,0.8-1.9,1.8v15.7c0,0.1,0,0.1,0,0.2S70,67.3,70,67.4l0,0
		c0,0,0,0,0,0.1l0,0l0,0l0,0l0,0l0,0l0,0l0,0l0,0l0,0l0,0l0,0c0,0,0,0-0.1,0l0,0c0,0,0,0-0.1,0l0,0c0,0,0,0-0.1,0c0,0,0,0-0.1,0l0,0
		c-0.1,0-0.2,0-0.3,0c-0.1,0-0.1,0-0.2-0.1L62,64.9c-0.5-0.2-0.9-0.1-1.4,0.1c-0.4,0.3-0.6,0.7-0.6,1.1l0,0c0,0,0,0,0,0.1l0,0
		c0,0.4,0.2,0.8,0.5,1.1l0.4,0.4l0,0l8.9,7.8c0.2,0.2,0.3,0.5,0.3,0.7v4.3c0,0.5-1,1-1,1H84c-0.2,0-0.3,0-0.5-0.1
		c-0.5-0.3-0.7-0.8-0.4-1.3l2.7-5.2c0.8-1.5,1.2-3.2,1.2-4.8V70C87,66.4,84.3,63.3,80.7,62.8z"/>
	<path class="st0" d="M95.3,43.4h-5.1c-0.3,0-0.5,0.1-0.6,0.4c-0.9,1.6-2.2,3-3.7,3.9s-3.3,1.4-5,1.4c-3.6,0-6.9-2.1-8.7-5.4
		c-0.1-0.2-0.4-0.4-0.6-0.4h-39c-0.3,0-0.5,0.1-0.6,0.4c-0.9,1.6-2.2,3-3.7,3.9S25,49,23.3,49c-3.6,0-6.9-2.1-8.7-5.4
		c-0.1-0.2-0.4-0.4-0.6-0.4H8.7c-0.4,0-0.7,0.3-0.7,0.7V46c0,0.4,0.3,0.7,0.7,0.7h3.5c2.9,3.7,6.7,5.7,10.7,5.7
		c3.1,0,6.2-1.2,8.9-3.5c0.8-0.7,1.5-1.4,2.1-2.2H70c0.2,0.3,0.5,0.6,0.7,0.8c0.4-0.1,0.8-0.2,1.3-0.2l0,0c2.1,0,3.9,1.7,3.9,3.8
		v0.3c1.5,0.7,3.2,1,4.9,1c3.1,0,6.2-1.2,8.9-3.5c0.8-0.7,1.5-1.4,2.1-2.2h3.5c0.4,0,0.7-0.3,0.7-0.7v-1.9
		C96,43.7,95.7,43.4,95.3,43.4z"/>
	<path class="st0" d="M58,66.3L58,66.3c0-0.9,0.3-1.6,0.8-2.2l-6.4-11c-0.2-0.3-0.7-0.3-0.8,0l-9,15.6c-0.1,0.1-0.1,0.3,0,0.5
		c0.1,0.1,0.2,0.2,0.4,0.2h16.8l-0.6-0.5C58.4,68.2,58,67.3,58,66.3z M46.6,66.9l5.4-9.4l5.4,9.4H46.6z"/>
</g>
</svg>
