<?xml version="1.0" encoding="utf-8"?>
<!-- Generator: Adobe Illustrator 27.0.0, SVG Export Plug-In . SVG Version: 6.00 Build 0)  -->
<svg version="1.1" id="图层_1" xmlns="http://www.w3.org/2000/svg" xmlns:xlink="http://www.w3.org/1999/xlink" x="0px" y="0px"
	 viewBox="0 0 104 104" style="enable-background:new 0 0 104 104;" xml:space="preserve">
<style type="text/css">
	.st0{fill:#5A5A5A;}
</style>
<path class="st0" d="M52,73.5c-11.9,0-21.5-9.6-21.5-21.5c0,0,0-0.1,0-0.1c0-0.8,0.7-1.4,1.5-1.4c0.8,0,1.5,0.7,1.5,1.5
	c0,0,0,0,0,0.1c0,10.2,8.3,18.5,18.5,18.5c10.2,0,18.5-8.3,18.5-18.5c0-10.2-8.3-18.5-18.4-18.5c-0.8,0-1.5-0.7-1.5-1.5
	c0-0.8,0.7-1.5,1.5-1.5c0,0,0,0,0,0c11.8,0,21.4,9.7,21.4,21.5C73.5,63.9,63.9,73.5,52,73.5z"/>
</svg>
