<?xml version="1.0" encoding="utf-8"?>
<!-- Generator: Adobe Illustrator 27.0.0, SVG Export Plug-In . SVG Version: 6.00 Build 0)  -->
<svg version="1.1" id="图层_1" xmlns="http://www.w3.org/2000/svg" xmlns:xlink="http://www.w3.org/1999/xlink" x="0px" y="0px"
	 viewBox="0 0 512 64.5" style="enable-background:new 0 0 512 64.5;" xml:space="preserve">
<style type="text/css">
	.st0{fill:#5A5A5A;}
</style>
<g>
	<polygon class="st0" points="40.1,27 23.9,0.2 -0.2,-0.1 -0.2,64.6 23.9,64.6 23.9,37.8 39.4,64.6 40.7,64.6 56.3,37.8 56.3,64.6 
		80.4,64.6 80.4,0.2 56.3,0.2 	"/>
	<polygon class="st0" points="89.1,64.6 113.2,64.6 113.2,41.4 113.2,22.4 113.2,0.2 89.1,0.2 	"/>
	<path class="st0" d="M472.9,45.4H466V38h25.5V26.8H466v-7.4h39.5V0.2h-79.1v0.3c-0.8-0.1-1.5-0.2-2.3-0.3h-48.3v49.9L356.5,0.2
		h-46.1h-16.2h-7.7L279.6,28L269.3,0.2h-22.2L238.2,28L228.1,0.2h-18.9H194h-29.6v22.2H145V0.2h-24.1v13.7l0,0v9.7
		c0,4.2,3.1,7.8,7.1,8.6c0,0.1,0.1,0.1,0.1,0.2c-4,0-7.2,3.3-7.2,7.3v9.7l0,0v15.3H145V41.4h19.4v23.2h24.2V50l0,0v-9.7
		c0-3.9-2.9-7.2-6.7-7.8c0.1-0.1,0.1-0.2,0.2-0.3c3.7-0.6,6.5-3.9,6.5-7.8v-5.1h5.4l0,0h15.4l17.1,45.2h24.2l7.8-27.3l9.4,27.3h24.2
		L305,19.4h7.4l-17.2,45.2h26.6l4.7-11.6h22.1l4.7,11.6h22.5h5.6h21.3V43.3l23.5,21.3h15.7H473h38.8V45.4H472.9z M327.5,40
		l10.6-25.5L348,40H327.5z M424.5,27.2c-1.2,0.6-2.2,0.9-3.2,0.9h-18.7V16.3h18.7c0.8,0,1.8,0.4,3.1,1.2c1.2,0.8,1.9,2.4,2.1,4.9
		C426.3,24.9,425.7,26.5,424.5,27.2z M433.2,45.4l-5.6-6.1c5.8-1.2,10.2-2.8,13.3-4.9c0.3-0.2,0.6-0.5,0.9-0.7v11.7H433.2z"/>
</g>
</svg>
