<?xml version="1.0" encoding="utf-8"?>
<!-- Generator: Adobe Illustrator 27.0.0, SVG Export Plug-In . SVG Version: 6.00 Build 0)  -->
<svg version="1.1" id="图层_1" xmlns="http://www.w3.org/2000/svg" xmlns:xlink="http://www.w3.org/1999/xlink" x="0px" y="0px"
	 viewBox="0 0 512 512" style="enable-background:new 0 0 512 512;" xml:space="preserve">
<style type="text/css">
	.st0{fill:#5A5A5A;}
</style>
<g>
	<g>
		<polygon class="st0" points="50.4,362.6 36.5,340 16,339.6 16,394.7 36.5,394.7 36.5,372 49.7,394.7 50.9,394.7 64.1,372 
			64.1,394.7 84.7,394.7 84.7,340 64.1,340 		"/>
		<polygon class="st0" points="92,394.7 112.6,394.7 112.6,375.1 112.6,358.9 112.6,340 92,340 		"/>
		<path class="st0" d="M419.1,378.5h-6v-6.3h21.6v-9.5h-21.6v-6.3h33.6V340h-67.3v0.2c-0.7,0-1.4-0.2-2-0.2h-41.2v42.6L319.8,340
			h-39.2h-13.8h-6.5l-5.8,23.7l-8.9-23.7h-18.9l-7.5,23.7l-8.7-23.7h-16.2h-13h-25.1v19h-16.5v-18.9h-20.6v11.6l0,0v8.2
			c0,3.6,2.6,6.6,6,7.3c0,0,0,0.2,0.2,0.2c-3.4,0-6.1,2.7-6.1,6.1v8.2l0,0v13h20.6v-19.4h16.5v19.8h20.6v-12.4l0,0v-8.2
			c0-3.4-2.6-6.1-5.8-6.6l0.2-0.2c3.2-0.5,5.6-3.2,5.6-6.6v-4.4h4.6l0,0h13.1l14.5,38.5h20.6l6.6-23.2l8,23.2H265l10.9-38.5h6.3
			l-14.7,38.5h22.7l3.9-9.9h18.8l3.9,9.9h19.1h4.8h18.1v-18.3l20.1,18.1h13.3h26.4h33.1v-16.4h-32.6V378.5z M295.2,373.7l9-21.6
			l8.4,21.6H295.2z M377.9,362.8c-1,0.5-1.9,0.9-2.7,0.9h-15.9v-10.1h15.9c0.7,0,1.5,0.3,2.6,1c1,0.7,1.7,2,1.7,4.1
			C379.4,360.9,378.9,362.3,377.9,362.8z M385.2,378.5l-4.8-5.3c4.9-1,8.7-2.4,11.2-4.3c0.3-0.2,0.5-0.3,0.7-0.5v10.1L385.2,378.5
			L385.2,378.5z"/>
	</g>
	<g>
		<polygon class="st0" points="81.1,178.7 20.9,295.8 77.7,295.8 134.6,178.7 		"/>
		<polygon class="st0" points="149.6,180.4 89.5,297.5 146.4,297.5 203.3,180.4 		"/>
		<polygon class="st0" points="235,118.4 109.6,118.4 91.2,160.3 214.9,162 		"/>
		<polygon class="st0" points="496,118.4 417.4,118.4 364.6,153.8 362.2,116.8 283.6,118.4 246.8,118.4 228.4,160.3 286.3,161 
			289.2,204.3 246.3,232.9 271.9,180.4 218.3,180.4 158.2,297.5 204.7,297.5 204.9,297.7 240,297.5 293,260.5 295.2,295.8 
			374,295.8 368.2,207.9 		"/>
	</g>
</g>
</svg>
