<?xml version="1.0" encoding="utf-8"?>
<!-- Generator: Adobe Illustrator 27.0.0, SVG Export Plug-In . SVG Version: 6.00 Build 0)  -->
<svg version="1.1" id="图层_1" xmlns="http://www.w3.org/2000/svg" xmlns:xlink="http://www.w3.org/1999/xlink" x="0px" y="0px"
	 viewBox="0 0 104 104" style="enable-background:new 0 0 104 104;" xml:space="preserve">
<style type="text/css">
	.st0{fill:#5A5A5A;}
</style>
<path class="st0" d="M72.7,30h-5.3V19.7H53.8V8h-4.2v11.7H35.7v4.2h27.7V30H31.3c-3.7,0-6.8,3.1-6.8,6.8v52.4c0,3.7,3.1,6.8,6.8,6.8
	h41.4c3.7,0,6.8-3.1,6.8-6.8V36.8C79.5,33.1,76.4,30,72.7,30z M75.3,89.6c0,0.9-0.7,1.5-1.5,1.5H30c-0.9,0-1.5-0.7-1.5-1.5v-4.4
	h46.6v4.4H75.3z M75.3,81H28.7V37c0-2,0.9-2.9,2.9-2.9h41.1c1.8,0,2.9,0.9,2.9,2.9v44H75.3z"/>
</svg>
