<?xml version="1.0" encoding="utf-8"?>
<!-- Generator: Adobe Illustrator 27.0.0, SVG Export Plug-In . SVG Version: 6.00 Build 0)  -->
<svg version="1.1" id="图层_1" xmlns="http://www.w3.org/2000/svg" xmlns:xlink="http://www.w3.org/1999/xlink" x="0px" y="0px"
	 viewBox="0 0 104 104" style="enable-background:new 0 0 104 104;" xml:space="preserve">
<style type="text/css">
	.st0{fill:#5A5A5A;}
</style>
<g>
	<path class="st0" d="M91.4,50.6L79,38.1c-0.8-0.8-2.1-0.8-2.9,0s-0.8,2.1,0,2.9l8.9,9H69.1c-1.1,0-2,0.9-2,2s0.9,2,2,2H85l-8.9,9
		c-0.8,0.8-0.8,2.1,0,2.9c0.4,0.4,0.9,0.6,1.4,0.6s1-0.2,1.4-0.6l12.4-12.4c0.4-0.4,0.6-0.9,0.6-1.4C92,51.5,91.8,50.9,91.4,50.6z"
		/>
	<path class="st0" d="M63,76.1L54,85V69.1c0-1.1-0.9-2-2-2s-2,0.9-2,2V85l-9-8.9c-0.8-0.8-2.1-0.8-2.9,0c-0.8,0.8-0.8,2.1,0,2.9
		l12.4,12.4c0.4,0.4,0.9,0.6,1.4,0.6s1.1-0.2,1.4-0.6L65.9,79c0.8-0.8,0.8-2.1,0-2.9C65.1,75.3,63.8,75.3,63,76.1z"/>
	<path class="st0" d="M34.9,50H19l8.9-8.9c0.8-0.8,0.8-2.1,0-2.9c-0.8-0.8-2.1-0.8-2.9,0L12.6,50.6c-0.8,0.8-0.8,2.1,0,2.9L25,65.9
		c0.4,0.4,0.9,0.6,1.4,0.6s1-0.2,1.4-0.6c0.8-0.8,0.8-2.1,0-2.9L19,54h15.9c1.1,0,2-0.9,2-2S36,50,34.9,50z"/>
	<path class="st0" d="M53.4,12.6c-0.8-0.8-2.1-0.8-2.9,0L38.1,25c-0.8,0.8-0.8,2.1,0,2.9s2.1,0.8,2.9,0l9-8.9v15.9c0,1.1,0.9,2,2,2
		s2-0.9,2-2V19l8.9,8.9c0.4,0.4,0.9,0.6,1.4,0.6s1-0.2,1.4-0.6c0.8-0.8,0.8-2.1,0-2.9L53.4,12.6z"/>
	<circle class="st0" cx="52" cy="52" r="10.1"/>
</g>
</svg>
