<?xml version="1.0" encoding="utf-8"?>
<!-- Generator: Adobe Illustrator 27.0.0, SVG Export Plug-In . SVG Version: 6.00 Build 0)  -->
<svg version="1.1" id="图层_1" xmlns="http://www.w3.org/2000/svg" xmlns:xlink="http://www.w3.org/1999/xlink" x="0px" y="0px"
	 viewBox="0 0 104 104" style="enable-background:new 0 0 104 104;" xml:space="preserve">
<style type="text/css">
	.st0{fill:#5A5A5A;}
</style>
<path class="st0" d="M22.4,57c0.8,4.6,2.6,8.8,5.2,12.4l-7.4,7.4l7,7l7.4-7.4c3.6,2.6,7.8,4.4,12.4,5.2V92h10V81.6
	c4.6-0.8,8.8-2.6,12.4-5.2l7.4,7.4l7-7l-7.4-7.4c2.6-3.6,4.4-7.8,5.2-12.4H92V47H81.6c-0.8-4.6-2.6-8.8-5.2-12.4l7.4-7.4l-7-7
	l-7.4,7.4c-3.6-2.6-7.8-4.4-12.4-5.2V12H47v10.4c-4.6,0.8-8.8,2.6-12.4,5.2l-7.4-7.4l-7,7l7.4,7.4c-2.6,3.6-4.4,7.8-5.2,12.4H12v10
	H22.4z M29.8,51.8c0-12.4,10.2-22.4,22.4-22.4s22.4,10,22.4,22.4s-10,22.4-22.4,22.4S29.8,64.2,29.8,51.8z"/>
</svg>
