<?xml version="1.0" encoding="utf-8"?>
<!-- Generator: Adobe Illustrator 27.0.0, SVG Export Plug-In . SVG Version: 6.00 Build 0)  -->
<svg version="1.1" id="图层_1" xmlns="http://www.w3.org/2000/svg" xmlns:xlink="http://www.w3.org/1999/xlink" x="0px" y="0px"
	 viewBox="0 0 104 104" style="enable-background:new 0 0 104 104;" xml:space="preserve">
<style type="text/css">
	.st0{fill:#5A5A5A;}
</style>
<g>
	<path class="st0" d="M32,96h-4c-1.1,0-2-0.9-2-2V10c0-1.1,0.9-2,2-2h4c1.1,0,2,0.9,2,2v84C34,95.1,33.1,96,32,96z"/>
	<path class="st0" d="M76,96h-4c-1.1,0-2-0.9-2-2V10c0-1.1,0.9-2,2-2h4c1.1,0,2,0.9,2,2v84C78,95.1,77.1,96,76,96z"/>
</g>
</svg>
