<?xml version="1.0" encoding="utf-8"?>
<!-- Generator: Adobe Illustrator 27.0.0, SVG Export Plug-In . SVG Version: 6.00 Build 0)  -->
<svg version="1.1" id="图层_1" xmlns="http://www.w3.org/2000/svg" xmlns:xlink="http://www.w3.org/1999/xlink" x="0px" y="0px"
	 viewBox="0 0 104 104" style="enable-background:new 0 0 104 104;" xml:space="preserve">
<style type="text/css">
	.st0{fill:#5A5A5A;}
</style>
<path class="st0" d="M91.4,74.2l-5.7-22.9c-0.1-0.5-0.6-0.9-1.1-0.9H62.4c0,0,0,0,0,0c3.5-5.3,6.7-11.3,6.7-15.6
	c0-9.5-7.7-17.2-17.1-17.2s-17.1,7.7-17.1,17.2c0,4.3,3.2,10.3,6.7,15.6H19.4c-0.5,0-1,0.4-1.1,0.9l-5.7,22.9c-0.1,0.3,0,0.7,0.2,1
	c0.2,0.3,0.5,0.4,0.9,0.4h76.7c0.4,0,0.7-0.2,0.9-0.4C91.5,74.9,91.5,74.6,91.4,74.2z M52,19.5c8.4,0,15.2,6.9,15.2,15.4
	c0,8.3-14.1,25.1-14.7,25.8L52,61.2l-0.5-0.6C50.9,60,36.8,43.2,36.8,34.9C36.8,26.4,43.6,19.5,52,19.5z M15.1,73.4l5.1-20.6h22.9
	c0,0,0,0,0,0c3.2,4.6,6.3,8.3,7,9.1l0.5,0.6c0.4,0.4,0.9,0.7,1.4,0.7c0,0,0,0,0,0c0.5,0,1.1-0.2,1.4-0.7l0.5-0.6
	c0.7-0.8,3.8-4.5,6.9-9.1c0,0,0,0,0,0h22.9l5.1,20.6H15.1z"/>
</svg>
