<?xml version="1.0" encoding="utf-8"?>
<!-- Generator: Adobe Illustrator 27.0.0, SVG Export Plug-In . SVG Version: 6.00 Build 0)  -->
<svg version="1.1" id="图层_1" xmlns="http://www.w3.org/2000/svg" xmlns:xlink="http://www.w3.org/1999/xlink" x="0px" y="0px"
	 viewBox="0 0 104 104" style="enable-background:new 0 0 104 104;" xml:space="preserve">
<style type="text/css">
	.st0{fill:#5A5A5A;}
</style>
<path class="st0" d="M95.7,74.2l-5.7-22.9c-0.1-0.5-0.6-0.9-1.1-0.9h-49c1.2-2.6,1.9-5.1,1.9-7.2c0-9.5-7.7-17.2-17.1-17.2
	c-9.4,0-17.1,7.7-17.1,17.2c0,6.2,6.8,16.1,11.3,22.1c0,0,0,0,0,0l-2.2,8.8c-0.1,0.3,0,0.7,0.2,1c0.2,0.3,0.5,0.4,0.9,0.4h76.7
	c0.4,0,0.7-0.2,0.9-0.4C95.7,74.9,95.7,74.6,95.7,74.2z M24.7,27.9c8.4,0,15.2,6.9,15.2,15.4c0,8.3-14.1,25.1-14.7,25.8l-0.5,0.6
	l-0.5-0.6C23.7,68.4,9.5,51.6,9.5,43.3C9.5,34.8,16.4,27.9,24.7,27.9z M19.3,73.4l1.4-5.7c0,0,0,0,0,0c1,1.3,1.8,2.2,2.1,2.6
	l0.5,0.6c0.4,0.4,0.9,0.7,1.4,0.7c0,0,0,0,0,0c0.5,0,1.1-0.2,1.4-0.7l0.5-0.6c1.1-1.3,8-9.6,12.1-17.5h49.2l5.1,20.6H19.3z"/>
</svg>
