<?xml version="1.0" encoding="utf-8"?>
<!-- Generator: Adobe Illustrator 27.0.0, SVG Export Plug-In . SVG Version: 6.00 Build 0)  -->
<svg version="1.1" id="图层_1" xmlns="http://www.w3.org/2000/svg" xmlns:xlink="http://www.w3.org/1999/xlink" x="0px" y="0px"
	 viewBox="0 0 104 104" style="enable-background:new 0 0 104 104;" xml:space="preserve">
<style type="text/css">
	.st0{fill:#5A5A5A;}
</style>
<path class="st0" d="M12.3,74.2c-0.1,0.3,0,0.7,0.2,1c0.2,0.3,0.5,0.4,0.9,0.4H90c0.4,0,0.7-0.2,0.9-0.4c0.2-0.3,0.3-0.6,0.2-1
	l-5.7-22.9c-0.1-0.5-0.6-0.9-1.1-0.9H30.4c4.5-6,11.4-16,11.4-22.3c0-9.5-7.7-17.2-17.1-17.2c-9.4,0-17.1,7.7-17.1,17.2
	c0,6.3,6.9,16.3,11.4,22.3h0c-0.5,0-1,0.4-1.1,0.9L12.3,74.2z M39.9,28.2c0,8.3-14.1,25.1-14.7,25.8l-0.5,0.6L24.3,54
	C23.7,53.3,9.5,36.5,9.5,28.2c0-8.5,6.8-15.4,15.2-15.4S39.9,19.7,39.9,28.2z M20.1,51.8C20.1,51.7,20,51.7,20.1,51.8
	C20,51.7,20.1,51.7,20.1,51.8z M29.5,51.7C29.5,51.7,29.4,51.7,29.5,51.7C29.4,51.7,29.5,51.7,29.5,51.7z M14.8,73.4L20,52.8h0.9
	c1,1.2,1.7,2.1,2,2.4l0.5,0.6c0.4,0.4,0.9,0.7,1.4,0.7c0,0,0,0,0,0c0.5,0,1.1-0.2,1.4-0.7l0.5-0.6c0.3-0.3,1-1.2,2-2.4h54.8
	l5.1,20.6H14.8z"/>
</svg>
