<?xml version="1.0" encoding="utf-8"?>
<!-- Generator: Adobe Illustrator 27.0.0, SVG Export Plug-In . SVG Version: 6.00 Build 0)  -->
<svg version="1.1" id="图层_1" xmlns="http://www.w3.org/2000/svg" xmlns:xlink="http://www.w3.org/1999/xlink" x="0px" y="0px"
	 viewBox="0 0 104 104" style="enable-background:new 0 0 104 104;" xml:space="preserve">
<style type="text/css">
	.st0{fill:#5A5A5A;}
</style>
<path class="st0" d="M84.4,65.4C84.4,65.4,84.4,65.4,84.4,65.4c4.5-6,11.3-15.9,11.3-22.1C95.7,33.8,88,26,78.6,26
	c-9.4,0-17.1,7.7-17.1,17.2c0,2.1,0.8,4.6,1.9,7.2h-49c-0.5,0-1,0.4-1.1,0.9L7.7,74.2c-0.1,0.3,0,0.7,0.2,1c0.2,0.3,0.5,0.4,0.9,0.4
	h76.7c0.4,0,0.7-0.2,0.9-0.4c0.2-0.3,0.3-0.6,0.2-1L84.4,65.4z M78.6,27.9c8.4,0,15.2,6.9,15.2,15.4c0,8.3-14.1,25.1-14.7,25.8
	l-0.5,0.6l-0.5-0.6c-0.6-0.7-14.7-17.5-14.7-25.8C63.4,34.8,70.3,27.9,78.6,27.9z M10.3,73.4l5.1-20.6h49.2
	c4.1,7.9,11,16.2,12.1,17.5l0.5,0.6c0.4,0.4,0.9,0.7,1.4,0.7c0,0,0,0,0,0c0.5,0,1.1-0.2,1.4-0.7l0.5-0.6c0.3-0.4,1.1-1.3,2.1-2.6
	c0,0,0,0,0,0l1.4,5.7H10.3z"/>
</svg>
