<?xml version="1.0" encoding="utf-8"?>
<!-- Generator: Adobe Illustrator 27.0.0, SVG Export Plug-In . SVG Version: 6.00 Build 0)  -->
<svg version="1.1" id="图层_1" xmlns="http://www.w3.org/2000/svg" xmlns:xlink="http://www.w3.org/1999/xlink" x="0px" y="0px"
	 viewBox="0 0 104 104" style="enable-background:new 0 0 104 104;" xml:space="preserve">
<style type="text/css">
	.st0{fill:#5A5A5A;}
</style>
<path class="st0" d="M80.9,51.4c-0.1-0.5-0.6-0.9-1.1-0.9h0c4.5-6,11.4-16,11.4-22.3c0-9.5-7.7-17.2-17.1-17.2
	c-9.4,0-17.1,7.7-17.1,17.2c0,6.3,6.9,16.3,11.4,22.3H14.6c-0.5,0-1,0.4-1.1,0.9L7.7,74.2c-0.1,0.3,0,0.7,0.2,1
	c0.2,0.3,0.5,0.4,0.9,0.4h76.7c0.4,0,0.7-0.2,0.9-0.4c0.2-0.3,0.3-0.6,0.2-1L80.9,51.4z M74.1,12.8c8.4,0,15.2,6.9,15.2,15.4
	c0,8.3-14.1,25.1-14.7,25.8l-0.5,0.6L73.7,54c-0.6-0.7-14.7-17.5-14.7-25.8C58.9,19.7,65.8,12.8,74.1,12.8z M78.9,51.7
	C78.8,51.7,78.8,51.7,78.9,51.7C78.8,51.7,78.8,51.7,78.9,51.7z M69.5,51.8C69.4,51.7,69.4,51.7,69.5,51.8
	C69.4,51.7,69.4,51.7,69.5,51.8z M10.3,73.4l5.1-20.6h54.8c1,1.2,1.7,2.1,2,2.4l0.5,0.6c0.4,0.4,0.9,0.7,1.4,0.7c0,0,0,0,0,0
	c0.5,0,1.1-0.2,1.4-0.7l0.5-0.6c0.3-0.3,1-1.2,2-2.4h0.9L84,73.4H10.3z"/>
</svg>
