<?xml version="1.0" encoding="utf-8"?>
<!-- Generator: Adobe Illustrator 27.0.0, SVG Export Plug-In . SVG Version: 6.00 Build 0)  -->
<svg version="1.1" id="图层_1" xmlns="http://www.w3.org/2000/svg" xmlns:xlink="http://www.w3.org/1999/xlink" x="0px" y="0px"
	 viewBox="0 0 104 104" style="enable-background:new 0 0 104 104;" xml:space="preserve">
<style type="text/css">
	.st0{fill:#5A5A5A;}
</style>
<path class="st0" d="M52,79.2c-23.9,0-42.8-24.9-43.6-26c-0.5-0.7-0.5-1.7,0-2.4c0.8-1.1,19.7-26,43.6-26s42.8,24.9,43.6,26
	c0.5,0.7,0.5,1.7,0,2.4C94.8,54.3,75.9,79.2,52,79.2z M12.6,52c4,4.9,20.4,23.2,39.4,23.2c19.1,0,35.4-18.3,39.4-23.2
	c-4-4.9-20.4-23.2-39.4-23.2C32.9,28.8,16.6,47.1,12.6,52z"/>
<path class="st0" d="M52,64.5c-6.9,0-12.5-5.6-12.5-12.5S45.1,39.5,52,39.5S64.5,45.1,64.5,52S58.9,64.5,52,64.5z M52,43.5
	c-4.7,0-8.5,3.8-8.5,8.5c0,4.7,3.8,8.5,8.5,8.5c4.7,0,8.5-3.8,8.5-8.5C60.5,47.3,56.7,43.5,52,43.5z"/>
</svg>
