<?xml version="1.0" encoding="utf-8"?>
<!-- Generator: Adobe Illustrator 27.0.0, SVG Export Plug-In . SVG Version: 6.00 Build 0)  -->
<svg version="1.1" id="图层_1" xmlns="http://www.w3.org/2000/svg" xmlns:xlink="http://www.w3.org/1999/xlink" x="0px" y="0px"
	 viewBox="0 0 104 104" style="enable-background:new 0 0 104 104;" xml:space="preserve">
<style type="text/css">
	.st0{fill:#5A5A5A;}
</style>
<g>
	<path class="st0" d="M95.6,50.8c-0.8-1.1-19.7-26-43.6-26c-2.9,0-5.9,0.4-8.8,1.1c-1.1,0.3-1.7,1.4-1.5,2.4
		c0.3,1.1,1.3,1.7,2.4,1.5c2.6-0.7,5.3-1,7.9-1c19.1,0,35.4,18.3,39.4,23.2c-1.7,2.1-5.6,6.6-11,11.1c-0.9,0.7-1,2-0.3,2.8
		c0.4,0.5,1,0.7,1.5,0.7c0.5,0,0.9-0.2,1.3-0.5c7.7-6.4,12.4-12.7,12.6-12.9C96.1,52.5,96.1,51.5,95.6,50.8z"/>
	<path class="st0" d="M59.9,74.2c-2.7,0.7-5.3,1-7.9,1c-19.1,0-35.4-18.3-39.4-23.2c1.7-2.1,5.6-6.6,11-11.1c0.9-0.7,1-2,0.3-2.8
		c-0.7-0.9-2-1-2.8-0.3C13.3,44.2,8.6,50.5,8.4,50.8c-0.5,0.7-0.5,1.7,0,2.4c0.8,1.1,19.7,26,43.6,26c2.9,0,5.9-0.4,8.9-1.1
		c1.1-0.3,1.7-1.4,1.5-2.4C62.1,74.6,61,73.9,59.9,74.2z"/>
	<path class="st0" d="M15.6,12.8c-0.8-0.8-2-0.8-2.8,0c-0.8,0.8-0.8,2,0,2.8l29.1,29.1c-1.5,2.1-2.4,4.7-2.4,7.3
		c0,6.9,5.6,12.5,12.5,12.5c2.7,0,5.2-0.8,7.3-2.4l29.1,29.1c0.4,0.4,0.9,0.6,1.4,0.6s1-0.2,1.4-0.6c0.8-0.8,0.8-2,0-2.8L15.6,12.8z
		 M52,60.5c-4.7,0-8.5-3.8-8.5-8.5c0-1.6,0.4-3.1,1.2-4.4l11.7,11.7C55.1,60.1,53.6,60.5,52,60.5z"/>
</g>
</svg>
