<?xml version="1.0" encoding="utf-8"?>
<!-- Generator: Adobe Illustrator 27.0.0, SVG Export Plug-In . SVG Version: 6.00 Build 0)  -->
<svg version="1.1" id="图层_1" xmlns="http://www.w3.org/2000/svg" xmlns:xlink="http://www.w3.org/1999/xlink" x="0px" y="0px"
	 viewBox="0 0 104 104" style="enable-background:new 0 0 104 104;" xml:space="preserve">
<style type="text/css">
	.st0{fill:#5A5A5A;}
</style>
<g>
	<path class="st0" d="M53.3,73.5h-2.6c0.2,2.9,2.9,5.3,5.7,5.3h23.1c1.1,0,1.8-0.7,1.8-1.3c0-0.9-0.9-1.3-1.8-1.3H56.4
		C54.9,75.9,53.6,74.8,53.3,73.5z"/>
	<path class="st0" d="M96,85.3L89.6,60c-0.2-0.9-0.9-1.3-1.8-1.3H62.4l-2.9,3.5h27L92,84H12l5.5-21.8h27l-3.1-3.5H16.2
		c-0.9,0-1.5,0.4-1.8,1.3L8.1,85.3c-0.2,0.4,0,1.1,0.4,1.5c0.4,0.4,0.9,0.7,1.3,0.7h84.4c0.4,0,1.1-0.2,1.3-0.7
		C96,86.4,96,85.8,96,85.3z"/>
	<path class="st0" d="M18.4,42.4h21.3v8.8c0,0.9,0.2,1.8,0.9,2.2l6.6,7.7c0.7,0.9,1.8,1.3,2.6,1.3h0.7v5.1c0,0.9,0.7,1.5,1.5,1.5
		h0.2c0.9,0,1.5-0.7,1.5-1.5v-5.1h0.4c1.1,0,2-0.4,2.6-1.3l6.6-7.9c0.4-0.7,0.9-1.5,0.9-2.2v-8.8h21.3c2,0,3.5-1.5,3.5-3.5v-7.5
		c0-2-1.5-3.5-3.5-3.5H64.3V20c0-2-1.5-3.5-3.5-3.5H43.5c-2,0-3.5,1.5-3.5,3.5v7.7H18.4c-2,0-3.5,1.5-3.5,3.5v7.5
		C14.9,40.6,16.4,42.4,18.4,42.4z M18.4,31.4h24.8V19.8h17.4v11.4h25.1v7.5H60.6V51L54,59h-2h-0.2h-2l-6.6-7.7V38.7H18.4V31.4z"/>
</g>
</svg>
