<?xml version="1.0" encoding="utf-8"?>
<!-- Generator: Adobe Illustrator 27.0.0, SVG Export Plug-In . SVG Version: 6.00 Build 0)  -->
<svg version="1.1" id="图层_1" xmlns="http://www.w3.org/2000/svg" xmlns:xlink="http://www.w3.org/1999/xlink" x="0px" y="0px"
	 viewBox="0 0 104 104" style="enable-background:new 0 0 104 104;" xml:space="preserve">
<style type="text/css">
	.st0{fill:#5A5A5A;}
</style>
<g>
	<path class="st0" d="M90.3,16.2c-1.1,0-1.7,0.8-1.7,1.9v17.4C82.3,21.7,68.3,12,52.2,12c-11,0-21.2,4.2-28.8,12.3
		c-0.6,0.6-0.6,1.9,0,2.5s1.9,0.6,2.5,0c7-7.2,16.1-11,26-11c20.2,0,36.5,16.3,36.5,36.2c0,1.1,0.8,1.9,1.7,1.9
		c0.8,0,1.7-0.8,1.7-1.9V18.1C92,17.1,91.4,16.2,90.3,16.2z"/>
	<path class="st0" d="M77.4,78c-6.8,6.6-15.7,10.2-25.2,10.2C32.1,88.2,16,71.9,16,51.8c0-1.1-0.8-1.9-1.9-1.9S12.2,51,12.2,52v33.9
		c0,1.1,0.8,1.7,1.9,1.7s1.9-0.8,1.9-1.7V68.5C22.4,82.3,36.1,92,52.2,92c10.4,0,20.3-4,27.7-11.2c0.6-0.6,0.6-1.9,0-2.5
		C79.3,77.4,78,77.4,77.4,78z"/>
</g>
</svg>
