<?xml version="1.0" encoding="utf-8"?>
<!-- Generator: Adobe Illustrator 27.0.0, SVG Export Plug-In . SVG Version: 6.00 Build 0)  -->
<svg version="1.1" id="图层_1" xmlns="http://www.w3.org/2000/svg" xmlns:xlink="http://www.w3.org/1999/xlink" x="0px" y="0px"
	 viewBox="0 0 104 104" style="enable-background:new 0 0 104 104;" xml:space="preserve">
<style type="text/css">
	.st0{fill:#5A5A5A;}
</style>
<g>
	<g>
		<g>
			<path class="st0" d="M85.1,50L21.5,8.5c-0.7-0.4-1.5-0.7-2.4-0.2c-0.9,0.4-1.3,1.3-1.3,2.2v83.1c0,0.9,0.4,1.8,1.3,2.2
				C19.5,96,20,96,20.2,96c0.4,0,0.9-0.2,1.3-0.4L85.1,54c0.7-0.4,1.1-1.1,1.1-2S85.7,50.5,85.1,50z M22.6,89.2V14.8l57,37.2
				L22.6,89.2z"/>
			<path class="st0" d="M25.9,25.2l40,26.2c0.2,0.2,0.4,0.2,0.7,0.2c0.4,0,0.9-0.2,1.1-0.4c0.4-0.7,0.2-1.3-0.2-1.8L27.2,23.2
				c-0.7-0.4-1.3-0.2-1.8,0.2C25.2,23.9,25.4,24.7,25.9,25.2z"/>
		</g>
	</g>
</g>
</svg>
