<?xml version="1.0" encoding="utf-8"?>
<!-- Generator: Adobe Illustrator 27.0.0, SVG Export Plug-In . SVG Version: 6.00 Build 0)  -->
<svg version="1.1" id="图层_1" xmlns="http://www.w3.org/2000/svg" xmlns:xlink="http://www.w3.org/1999/xlink" x="0px" y="0px"
	 viewBox="0 0 104 104" style="enable-background:new 0 0 104 104;" xml:space="preserve">
<style type="text/css">
	.st0{fill:#5A5A5A;}
</style>
<g>
	<path class="st0" d="M90.6,29.2h-3.2c-0.2-0.8-0.6-1.4-0.8-2.2l2.4-2.4c0.6-0.6,0.6-1.4,0-1.8L85.2,19c-0.6-0.6-1.4-0.6-1.8,0
		L81,21.4c-0.6-0.4-1.4-0.6-2.2-0.8v-3.2c0-0.8-0.6-1.4-1.4-1.4H72c-0.8,0-1.4,0.6-1.4,1.4v3.2c-0.8,0.2-1.4,0.6-2.2,0.8L66,19
		c-0.6-0.6-1.4-0.6-1.8,0l-3.8,3.8c-0.6,0.6-0.6,1.4,0,1.8l2.4,2.4c-0.4,0.8-0.6,1.4-0.8,2.2h-3.2c-0.8,0-1.4,0.6-1.4,1.4V36
		c0,0.8,0.6,1.4,1.4,1.4H62c0.2,0.8,0.6,1.4,0.8,2.2L60.4,42c-0.6,0.6-0.6,1.4,0,1.8l3.8,3.8c0.6,0.6,1.4,0.6,1.8,0l2.4-2.4
		c0.6,0.4,1.4,0.6,2.2,0.8v3.2c0,0.8,0.6,1.4,1.4,1.4h5.4c0.8,0,1.4-0.6,1.4-1.4V46c0.8-0.2,1.4-0.6,2.2-0.8l2.4,2.4
		c0.6,0.6,1.4,0.6,1.8,0l3.8-3.8c0.6-0.6,0.6-1.4,0-1.8l-2.4-2.4c0.4-0.8,0.6-1.4,0.8-2.2h3.2c0.8,0,1.4-0.6,1.4-1.4v-5.4
		C92,29.8,91.4,29.2,90.6,29.2z M89.8,34.6h-3c-0.6,0-1.2,0.4-1.4,1C85.2,36.8,84.6,38,84,39c-0.4,0.6-0.2,1.2,0.2,1.6l2.2,2.2l-2,2
		l-2.2-2.2c-0.4-0.4-1.2-0.6-1.6-0.2c-1,0.6-2.2,1.2-3.4,1.4C76.6,44,76,44.6,76,45.2v3h-2.8v-3c0-0.6-0.4-1.2-1-1.4
		c-1.2-0.2-2.4-0.8-3.4-1.4c-0.6-0.4-1.2-0.2-1.6,0.2L65,44.8l-2-2l2.2-2.2c0.4-0.4,0.6-1.2,0.2-1.6c-0.6-1-1.2-2.2-1.4-3.4
		c-0.2-0.6-0.8-1-1.4-1h-3V32h3c0.6,0,1.2-0.4,1.4-1c0.2-1.2,0.8-2.4,1.4-3.4c0.4-0.6,0.2-1.2-0.2-1.6L63,23.8l2-2l2.2,2.2
		c0.4,0.4,1.2,0.6,1.6,0.2c1-0.6,2.2-1.2,3.4-1.4c0.6-0.2,1-0.8,1-1.4v-3.2H76v3c0,0.6,0.4,1.2,1,1.4c1.2,0.2,2.4,0.8,3.4,1.4
		c0.6,0.4,1.2,0.2,1.6-0.2l2.2-2.2l2,2L84,25.8c-0.4,0.4-0.6,1.2-0.2,1.6c0.6,1,1.2,2.2,1.4,3.4c0.2,0.6,0.6,1,1.4,1h3v2.8H89.8z"/>
	<path class="st0" d="M74.8,26.8c-3.6,0-6.4,2.8-6.4,6.4c0,3.6,2.8,6.4,6.4,6.4s6.4-2.8,6.4-6.4C81.2,29.6,78.2,26.8,74.8,26.8z
		 M74.8,37.6c-2.4,0-4.4-2-4.4-4.4s2-4.4,4.4-4.4s4.4,2,4.4,4.4C79.2,35.6,77.2,37.6,74.8,37.6z"/>
	<path class="st0" d="M38.8,51.8c-7.4,0-13.4,6-13.4,13.4s6,13.4,13.4,13.4s13.4-6,13.4-13.4C52.2,57.8,46.2,51.8,38.8,51.8z
		 M38.8,75.8c-5.8,0-10.6-4.8-10.6-10.6S33,54.6,38.8,54.6s10.6,4.8,10.6,10.6S44.8,75.8,38.8,75.8z"/>
	<path class="st0" d="M64.2,58.4h-5c-0.4-1.4-1-2.8-1.8-4.2l3.2-2.8c0.6-0.4,0.6-1.4,0.2-1.8l-6.2-7c-0.2-0.2-0.6-0.4-1-0.4
		s-0.8,0-1,0.4L48.4,46c-1.4-0.8-2.8-1.2-4.2-1.6v-4.8c0-0.8-0.6-1.4-1.4-1.4h-9.4c-0.8,0-1.4,0.6-1.4,1.4v5
		c-1.4,0.4-2.8,1.2-4.2,1.8l-3.4-3.2c-0.6-0.6-1.4-0.6-1.8,0L16,50c-0.4,0.4-0.6,1.2-0.2,1.6C16,51.8,16,51.8,16,52l3.6,3.6
		c-0.8,1.4-1.2,2.8-1.6,4.2h-4.6c-0.8,0-1.4,0.6-1.4,1.4v9.4c0,0.8,0.6,1.4,1.4,1.4h5.2c0.4,1.4,1.2,2.8,1.8,4.2L17,79.6
		c-0.6,0.6-0.6,1.4,0,2l6.6,6.4c0.6,0.6,1.4,0.6,1.8,0l3.6-3.6c1.4,0.8,2.8,1.2,4.2,1.6v4.6c0,0.8,0.6,1.4,1.4,1.4H44
		c0.8,0,1.4-0.6,1.4-1.4v-5c1.4-0.4,2.8-1.2,4.2-1.8l3.4,3.4c0.6,0.6,1.4,0.6,2,0l6.6-6.6c0.4-0.4,0.6-1.2,0.2-1.6
		c0,0,0-0.2-0.2-0.2l-3.6-4c0.8-1.4,1.2-2.8,1.6-4.4h4.8c0.8,0,1.4-0.6,1.4-1.4v-9.4C65.6,59,65,58.4,64.2,58.4z M63,67.8h-4.4
		c-0.6,0-1.2,0.4-1.4,1c-0.4,2-1,3.8-2,5.6C55,75,55,75.6,55.4,76l3.4,3.4L54,84.2L50.8,81c-0.4-0.4-1.2-0.6-1.8-0.2
		c-1.6,1-3.4,2-5.4,2.4c-0.6,0.2-1,0.6-1,1.4v4.8H36V85c0-0.6-0.4-1.2-1-1.4c-2-0.4-3.8-1-5.6-2c-0.6-0.4-1.2-0.2-1.6,0.2l-3.4,3.4
		l-4.8-4.8l3.2-3.2c0.4-0.4,0.6-1.2,0.2-1.6c-1-1.6-1.8-3.4-2.4-5.4c-0.2-0.6-0.6-1-1.4-1h-4.8v-6.8h4.4c0.6,0,1.2-0.4,1.4-1
		c0.4-2,1.2-3.8,2-5.6c0.2-0.6,0.2-1.2-0.2-1.6l-3.4-3.4l5-4.8l3.2,3.2c0.4,0.4,1.2,0.6,1.8,0.2c1.6-1,3.4-2,5.4-2.4
		c0.6-0.2,1-0.8,1-1.2V41h6.8v4.4c0,0.6,0.4,1.2,1,1.4c1.8,0.4,3.8,1,5.4,2c0.4,0.2,1,0.2,1.6-0.2l4-3.4l4.4,5.2l-3,2.6
		c-0.6,0.4-0.6,1.2-0.2,1.8c1,1.6,2,3.4,2.4,5.4c0.2,0.6,0.8,1,1.2,1h4.8L63,67.8L63,67.8z"/>
	<path class="st0" d="M39,27.2l-2,2l1.8,1.8l2-2c1,0.8,2,1.2,3.2,1.4v2.8h2.6v-2.8c1.2-0.2,2.4-0.6,3.2-1.4l2,2l1.8-1.8l-2-2
		c0.8-1,1.2-2,1.4-3.2h3v-2.6h-2.8C53,20.2,52.6,19,52,18l2-2l-2-1.8l-2,2c-1-0.6-2-1.2-3.2-1.4V12h-2.6v2.8
		C43,15,41.8,15.4,41,16.2l-2-2L37,16l2,2c-0.8,1-1.2,2-1.4,3.2h-2.8V24h2.8C37.8,25.2,38.2,26.2,39,27.2z M45.6,16.6
		c3.2,0,6,2.6,6,6s-2.6,6-6,6s-6-2.6-6-6S42.2,16.6,45.6,16.6z"/>
	<rect x="43.8" y="21" class="st0" width="3.2" height="3.2"/>
</g>
</svg>
