<?xml version="1.0" encoding="utf-8"?>
<!-- Generator: Adobe Illustrator 27.0.0, SVG Export Plug-In . SVG Version: 6.00 Build 0)  -->
<svg version="1.1" id="图层_1" xmlns="http://www.w3.org/2000/svg" xmlns:xlink="http://www.w3.org/1999/xlink" x="0px" y="0px"
	 viewBox="0 0 104 104" style="enable-background:new 0 0 104 104;" xml:space="preserve">
<style type="text/css">
	.st0{fill:#5A5A5A;}
</style>
<path class="st0" d="M66.8,87.8H37.2c-2.2,0-4-1.8-4-4V62H12.1c-1.6,0-3.2-1-3.8-2.6s-0.2-3.2,1-4.4l39.9-37.7c1.6-1.4,4-1.4,5.6,0
	L94.7,55c1.2,1.2,1.6,2.8,1,4.4s-2,2.6-3.8,2.6H70.8v21.8C70.8,86.2,69,87.8,66.8,87.8z M41.2,79.8h21.4V58c0-2.2,1.8-4,4-4h15.4
	L52,25.7L22.1,54h15.2c2.2,0,4,1.8,4,4V79.8z"/>
</svg>
