<?xml version="1.0" encoding="utf-8"?>
<!-- Generator: Adobe Illustrator 27.0.0, SVG Export Plug-In . SVG Version: 6.00 Build 0)  -->
<svg version="1.1" id="图层_1" xmlns="http://www.w3.org/2000/svg" xmlns:xlink="http://www.w3.org/1999/xlink" x="0px" y="0px"
	 viewBox="0 0 104 104" style="enable-background:new 0 0 104 104;" xml:space="preserve">
<style type="text/css">
	.st0{fill:#5A5A5A;}
	.st1{opacity:0.3;fill:#5A5A5A;enable-background:new    ;}
	.st2{opacity:0.5;fill:#5A5A5A;enable-background:new    ;}
</style>
<g>
	<path class="st0" d="M81.3,31.7c5.9,6.6,9.7,14.9,10.1,24.1h-7.2c-1.1,0-2.2,0.9-2.2,2.2c0,1.1,0.9,2.2,2.2,2.2h7.2
		c-0.4,9-4,17.6-10.1,24.1L80,86.1c-0.9,0.9-0.9,2.2,0,3.1l0,0c0.4,0.4,0.9,0.7,1.5,0.7c0.2,0,0.4,0,0.9-0.2
		c0.4-0.2,0.4-0.2,0.7-0.4C91.4,81,96,70,96,58.4c0-12.1-4.8-22.8-12.7-30.7l-0.2-0.2l-0.2-0.2c-8.1-8.4-18.9-13.2-31-13.2
		S29,18.9,21.1,26.8L20.9,27l-0.2,0.2C12.8,35.2,8,45.9,8,58c0,11.6,4.6,22.8,12.9,30.9l0,0l0,0l0,0c0.4,0.4,0.9,0.7,1.5,0.7
		c0.4,0,1.1-0.2,1.5-0.7c0,0,0,0,0.2,0l-0.4,0.2c0.9-0.9,0.9-2.2,0-3.1l-1.3-1.8c-6.1-6.8-9.7-15.1-10.1-24.1h7.5
		c1.1,0,2.2-0.9,2.2-2.2c0-1.1-0.9-2.2-2.2-2.2h-7.5c0.4-9.2,4.2-17.8,10.1-24.4c0.9-1.1,2-2.2,3.1-3.1c6.6-5.9,14.9-9.7,24.4-10.1
		v7.2c0,1.1,0.9,2.2,2.2,2.2c1.3,0,2.2-0.9,2.2-2.2v-7c9,0.4,17.3,4.2,23.9,10.1C79.4,29.5,80.5,30.6,81.3,31.7z"/>
	<path class="st1" d="M58.5,57.1c-0.2-2-1.3-3.7-3.1-4.8c-1.3-1.1-3.1-1.3-4.6-0.9c-5,1.3-18.9,7.5-19.5,7.7l-4.6,2.2l5,0.9
		c0.7,0,15.6,2.6,20.6,2.6l0,0c1.8,0,3.1-0.7,4.4-2C58.1,61.3,58.7,59.1,58.5,57.1z"/>
	<path class="st2" d="M58.5,57.8c-0.7-5.3-5-19.5-5.3-20.2l-1.3-4.8l-1.5,4.8c-0.2,0.7-4.6,15.1-5.3,20.2c-0.2,1.5,0.2,3.3,1.5,4.6
		c1.3,1.5,3.3,2.4,5.3,2.4s4-0.9,5.3-2.4C58.3,61.1,58.7,59.5,58.5,57.8z"/>
	<path class="st0" d="M72.3,59.1c-0.7-0.2-14.3-6.4-19.5-7.7c-1.5-0.4-3.3,0-4.6,0.9c-1.5,1.1-2.6,2.9-3.1,4.8c-0.4,2,0.4,4,1.8,5.5
		c1.1,1.3,2.6,2,4.4,2l0,0l0,0c5.3,0,20-2.6,20.6-2.6l5-0.9L72.3,59.1z"/>
</g>
</svg>
