<?xml version="1.0" encoding="utf-8"?>
<!-- Generator: Adobe Illustrator 27.0.0, SVG Export Plug-In . SVG Version: 6.00 Build 0)  -->
<svg version="1.1" id="图层_1" xmlns="http://www.w3.org/2000/svg" xmlns:xlink="http://www.w3.org/1999/xlink" x="0px" y="0px"
	 viewBox="0 0 104 104" style="enable-background:new 0 0 104 104;" xml:space="preserve">
<style type="text/css">
	.st0{fill:#5A5A5A;}
</style>
<path class="st0" d="M84,92H20c-4.4,0-8-3.6-8-8V20c0-4.4,3.6-8,8-8h64c4.4,0,8,3.6,8,8v64C92,88.4,88.4,92,84,92z M86,80.4V23.6
	c0-3.2-2.4-5.6-5.6-5.6H23.6c-3.2,0-5.6,2.4-5.6,5.6v57c0,3,2.4,5.4,5.6,5.4h57C83.6,86,86,83.6,86,80.4z"/>
</svg>
