<?xml version="1.0" encoding="utf-8"?>
<!-- Generator: Adobe Illustrator 27.0.0, SVG Export Plug-In . SVG Version: 6.00 Build 0)  -->
<svg version="1.1" id="图层_1" xmlns="http://www.w3.org/2000/svg" xmlns:xlink="http://www.w3.org/1999/xlink" x="0px" y="0px"
	 viewBox="0 0 104 104" style="enable-background:new 0 0 104 104;" xml:space="preserve">
<style type="text/css">
	.st0{fill:#5A5A5A;}
</style>
<g>
	<path class="st0" d="M49.1,65.3V35.5c0-0.5-0.6-1-1.3-1c-0.7,0-1.3,0.4-1.3,1v29.8c-5.3,0.6-9.4,5.1-9.4,10.6
		c0,5.9,4.8,10.7,10.7,10.7c5.9,0,10.6-4.8,10.7-10.7C58.5,70.4,54.4,65.9,49.1,65.3z M47.9,83.1c-4,0-7.2-3.2-7.2-7.2
		c0-4,3.2-7.2,7.2-7.2c4,0,7.2,3.2,7.2,7.2C55.1,79.8,51.8,83.1,47.9,83.1z"/>
	<path class="st0" d="M58.2,58.6V18.3C58.2,12.6,53.5,8,47.8,8s-10.3,4.6-10.3,10.3v40.2c-5.4,3.2-9,8.8-9.7,15
		c-1.3,11.1,6.7,21,17.7,22.3c0.8,0.1,1.5,0.1,2.3,0.1c4.9,0,9.7-1.8,13.4-5.1c1.5-1.4,2.8-2.9,3.9-4.7
		C70.8,76.6,67.7,64.3,58.2,58.6z M56.3,91.3c-8.5,4.7-19.2,1.6-23.9-7c-4.7-8.5-1.6-19.2,7-23.9c0.4-0.2,0.7-0.6,0.7-1.1v-41
		c0-4.3,3.5-7.8,7.8-7.8c4.3,0,7.8,3.5,7.8,7.8v41c0,0.5,0.3,0.9,0.7,1.1c2.9,1.6,5.4,4,7,7C68,75.9,64.9,86.6,56.3,91.3z"/>
	<path class="st0" d="M75,19.4H66c-0.7,0-1.3,0.6-1.3,1.3c0,0.7,0.6,1.3,1.3,1.3H75c0.7,0,1.3-0.6,1.3-1.3
		C76.3,20,75.7,19.4,75,19.4z"/>
	<path class="st0" d="M70.5,30H66c-0.7,0-1.3,0.6-1.3,1.3c0,0.7,0.6,1.3,1.3,1.3h4.5c0.7,0,1.3-0.6,1.3-1.3
		C71.8,30.6,71.2,30,70.5,30z"/>
</g>
</svg>
