<?xml version="1.0" encoding="utf-8"?>
<!-- Generator: Adobe Illustrator 27.0.0, SVG Export Plug-In . SVG Version: 6.00 Build 0)  -->
<svg version="1.1" id="图层_1" xmlns="http://www.w3.org/2000/svg" xmlns:xlink="http://www.w3.org/1999/xlink" x="0px" y="0px"
	 viewBox="0 0 104 104" style="enable-background:new 0 0 104 104;" xml:space="preserve">
<style type="text/css">
	.st0{fill:#5A5A5A;}
</style>
<path class="st0" d="M88.6,30.3H74.4v-5.7c0-7-5.7-12.6-12.6-12.6H42.3c-7,0-12.6,5.7-12.6,12.6v5.7H15.5c-3.9,0-7,3-7,7V85
	c0,3.9,3,7,7,7h7h17.2h24.6h17.2h7c3.9,0,7-3,7-7V37.2C95.5,33.3,92.3,30.3,88.6,30.3 M33.8,30.3V25l0,0c0-5,4.1-9.1,9.1-9.1h18.3
	c5,0,9.1,4.1,9.1,9.1v5.2H33.8z M16.6,88.7c-2.2,0-4.1-1.7-4.1-4.1V47.9h10.9v8h10.9v-8h35.4v8h10.9v-8h10.9v36.7
	c0,2.2-1.7,4.1-3.9,4.1H16.6z M91.2,44.6H79h-1.3h-5.4H71H33.1h-1.3h-5.4h-1.3H12.9v-6.7c0-2.2,1.7-4.1,4.1-4.1h13.3h5.4h32.4h5.4
	h13.5c2.2,0,4.1,1.7,4.1,4.1L91.2,44.6L91.2,44.6z"/>
</svg>
